<?xml version="1.0" encoding="UTF-8"?>
<svg version="1.1" xmlns="http://www.w3.org/2000/svg" width="720" height="576">
<path d="M0 0 C0.33 0.66 0.66 1.32 1 2 C1.94875 1.835 2.8975 1.67 3.875 1.5 C10.17061062 0.60428304 16.81694209 0.35118456 23 2 C23.33 1.34 23.66 0.68 24 0 C24 0.66 24 1.32 24 2 C25.33285789 1.89403 25.33285789 1.89403 26.69264221 1.78591919 C38.78933206 0.91861133 50.84122014 0.85481157 62.96484375 0.8671875 C65.18782064 0.86595838 67.41079737 0.864389 69.6337738 0.86250305 C76.73502921 0.85865788 83.83625085 0.86604577 90.9375 0.875 C92.13925117 0.87627018 93.34100235 0.87754036 94.57917023 0.87884903 C109.98279548 0.89519403 125.38630696 0.92961336 140.78985596 0.98040771 C144.67343998 0.99313547 148.55701577 1.00398264 152.44061279 1.01177979 C160.92430487 1.02892636 169.40687847 1.06423129 177.89016724 1.15460205 C180.18264615 1.17624379 182.47521629 1.18993448 184.76779175 1.19500732 C203.27067195 1.24953738 216.06138652 3.96854694 229.5625 17.5 C230.09343262 18.05131592 230.62436523 18.60263184 231.17138672 19.1706543 C232.88390617 20.88385967 234.64817227 22.44721319 236.49609375 24.01171875 C241.5436934 28.39866215 246.27712576 33.09104319 251.00292969 37.81762695 C252.52002025 39.33249086 254.04499737 40.83912592 255.5703125 42.34570312 C256.53694493 43.309408 257.50310897 44.27358298 258.46875 45.23828125 C259.33951172 46.10493408 260.21027344 46.97158691 261.10742188 47.86450195 C263 50 263 50 263 52 C263.55171875 52.226875 264.1034375 52.45375 264.671875 52.6875 C267.68692417 54.38725926 269.81230369 56.54804816 272.25 59 C273.14203125 59.886875 274.0340625 60.77375 274.953125 61.6875 C277 64 277 64 277 66 C277.59324696 66.26806867 278.18649391 66.53613733 278.79771805 66.81232929 C281.02208627 68.01191092 282.46214514 69.21787704 284.23651123 71.00273132 C284.85309601 71.61801193 285.46968079 72.23329254 286.10494995 72.86721802 C286.76995514 73.5409848 287.43496033 74.21475159 288.12011719 74.90893555 C288.82961517 75.61974777 289.53911316 76.33056 290.27011108 77.06291199 C292.61699214 79.41628866 294.95681801 81.77655823 297.296875 84.13671875 C298.93058105 85.77669764 300.56480494 87.41616081 302.19952393 89.05513 C306.5079151 93.3768349 310.81071509 97.70406044 315.11193848 102.03289795 C321.9808438 108.944871 328.85635215 115.8502584 335.73526764 122.75226784 C338.13052671 125.15769493 340.52230844 127.56653941 342.91375732 129.97575378 C344.39648705 131.46531865 345.87933032 132.95477049 347.36230469 134.4440918 C348.01921295 135.10773743 348.67612122 135.77138306 349.35293579 136.45513916 C353.18134119 140.29278628 357.1325658 143.92029305 361.23534966 147.46273136 C363.24620195 149.21447792 365.15969734 151.03907545 367.04174805 152.92822266 C367.72573166 153.6122818 368.40971527 154.29634094 369.11442566 155.00112915 C369.82303238 155.71489716 370.5316391 156.42866516 371.26171875 157.1640625 C372.01540237 157.91916107 372.769086 158.67425964 373.54560852 159.45223999 C375.92862256 161.84079761 378.30812215 164.23282071 380.6875 166.625 C382.29468818 168.23721216 383.90210807 169.84919338 385.50976562 171.4609375 C388.45675724 174.41605545 391.40243011 177.37247356 394.34643555 180.33056641 C394.97728561 180.96401474 395.60813568 181.59746307 396.25810242 182.25010681 C397.34625483 183.34325403 398.43363553 184.43717061 399.51985168 185.53224182 C402.67372499 188.70476192 405.99154711 191.58629898 409.42578125 194.44921875 C409.94527344 194.96097656 410.46476562 195.47273437 411 196 C411 196.66 411 197.32 411 198 C411.57741943 198.25144775 412.15483887 198.50289551 412.74975586 198.76196289 C415.28932934 200.15918293 416.97170087 201.7447227 419.00390625 203.80859375 C419.74447266 204.55560547 420.48503906 205.30261719 421.24804688 206.07226562 C422.01181641 206.85279297 422.77558594 207.63332031 423.5625 208.4375 C424.33013672 209.21416016 425.09777344 209.99082031 425.88867188 210.79101562 C427.31552646 212.23528605 428.7403159 213.68160175 430.16235352 215.13061523 C431.76647286 216.76243957 433.37915296 218.38481476 435 220 C433.73341224 223.90420562 432.35097691 227.71415506 430.78515625 231.5078125 C430.35203125 232.56218506 429.91890625 233.61655762 429.47265625 234.70288086 C429.00730469 235.83218018 428.54195313 236.96147949 428.0625 238.125 C422.70401117 251.2031504 417.50996204 264.34165322 412.36621094 277.50585938 C410.12583857 283.23570379 407.87532085 288.96155696 405.625 294.6875 C405.18220703 295.81430176 404.73941406 296.94110352 404.28320312 298.10205078 C403.35718808 300.45836938 402.43107872 302.81465092 401.50488281 305.17089844 C400.43606522 307.89011966 399.3678044 310.60955901 398.29980469 313.32910156 C396.82333009 317.08858055 395.34569454 320.84760162 393.86737061 324.60635376 C393.29542075 326.06110102 392.72383845 327.51599285 392.15264893 328.97103882 C391.35277441 331.00843441 390.55153725 333.04528933 389.75 335.08203125 C389.29109375 336.24968018 388.8321875 337.4173291 388.359375 338.62036133 C386.95772875 342.10509355 385.49224815 345.5532908 384 349 C384.66 349 385.32 349 386 349 C386.23074219 348.45859375 386.46148437 347.9171875 386.69921875 347.359375 C388.37156463 344.32605094 390.54767197 341.84651909 392.8125 339.25 C397.10811295 334.25481785 401.30388708 329.1924705 405.4375 324.0625 C410.06064554 318.33404283 414.79205987 312.71880882 419.61425781 307.1574707 C423.58685664 302.5479678 427.33551916 297.78753955 431.06030273 292.97705078 C434.48593717 288.58145165 438.13084824 284.44392264 441.90234375 280.33984375 C443.94672592 278.05942491 445.85692144 275.71935772 447.75 273.3125 C451.18821837 268.9478156 454.78478068 264.74706699 458.4375 260.5625 C462.95756958 255.38289096 467.37439664 250.14162773 471.69921875 244.796875 C474.37247241 241.5472152 477.12076794 238.3684564 479.875 235.1875 C484.45513506 229.89101287 488.82335263 224.46397149 493.11206055 218.92993164 C496.8723719 214.1005731 500.8473041 209.49776233 505 205 C503.66326168 200.98978505 501.04042531 199.65530703 497.6875 197.375 C496.41435482 196.49103589 495.1422388 195.60558789 493.87109375 194.71875 C493.22640137 194.27015625 492.58170898 193.8215625 491.91748047 193.359375 C487.968953 190.56011336 484.15745506 187.57621527 480.328125 184.6171875 C478.19868208 182.80983363 478.19868208 182.80983363 476 183 C474.87179247 181.86525845 473.74731725 180.72665275 472.63769531 179.57373047 C469.16698692 176.23858045 465.21556485 173.45305613 461.375 170.5625 C460.45074219 169.86310303 459.52648437 169.16370605 458.57421875 168.44311523 C438.60143293 150.27786883 438.60143293 150.27786883 416 139 C416 138.01 416 137.02 416 136 C415.13652954 135.59491211 415.13652954 135.59491211 414.25561523 135.18164062 C411.96334676 133.9807986 409.98909053 132.63244685 407.91015625 131.09375 C407.1313208 130.51931152 406.35248535 129.94487305 405.55004883 129.35302734 C404.72915771 128.74152832 403.9082666 128.1300293 403.0625 127.5 C402.22162842 126.87432129 401.38075684 126.24864258 400.5144043 125.60400391 C398.81385776 124.33673931 397.11438469 123.06803289 395.41601562 121.79785156 C393.2416485 120.17982008 391.05403627 118.58250609 388.859375 116.9921875 C387.67666 116.12036567 386.49433731 115.24801126 385.3125 114.375 C384.27738281 113.61960937 383.24226563 112.86421875 382.17578125 112.0859375 C381.45777344 111.39757812 380.73976563 110.70921875 380 110 C380 106 380 106 381.35766602 104.20410156 C381.98342529 103.6056543 382.60918457 103.00720703 383.25390625 102.390625 C384.2893457 101.38128906 384.2893457 101.38128906 385.34570312 100.3515625 C386.07724609 99.65804687 386.80878906 98.96453125 387.5625 98.25 C393.64240268 92.40914503 393.64240268 92.40914503 399.32421875 86.1875 C403.99345654 80.74639364 409.14900437 75.78066017 414.25 70.75 C416.21648813 68.81024083 418.1795299 66.86708463 420.140625 64.921875 C421.00204102 64.07206055 421.86345703 63.22224609 422.75097656 62.34667969 C425.01039622 60.09470587 425.01039622 60.09470587 426.67871094 57.69238281 C427.11473633 57.13389648 427.55076172 56.57541016 428 56 C428.66 56 429.32 56 430 56 C430.27048157 55.40387405 430.54096313 54.80774811 430.81964111 54.19355774 C431.9898511 52.01886052 433.13620746 50.62704896 434.88574219 48.90307617 C435.75740021 48.03648628 435.75740021 48.03648628 436.64666748 47.15238953 C437.27373596 46.53878067 437.90080444 45.92517181 438.546875 45.29296875 C439.52010712 44.32753899 439.52010712 44.32753899 440.51300049 43.34260559 C442.5873026 41.28609095 444.66814925 39.23637046 446.75 37.1875 C448.8167348 35.14853091 450.88194104 33.10807329 452.94415283 31.06452942 C454.22579496 29.79498068 455.51009938 28.52811172 456.79754639 27.26445007 C460.33925736 23.76169828 463.62252471 20.16841349 466.74102783 16.28144836 C467.36421906 15.64713142 467.36421906 15.64713142 468 15 C468.66 15 469.32 15 470 15 C470.33 14.01 470.66 13.02 471 12 C472.93359375 10.28125 472.93359375 10.28125 475.4375 8.5 C476.24058594 7.9121875 477.04367187 7.324375 477.87109375 6.71875 C488.22162308 1.03306597 499.07214819 1.45069534 510.5625 1.3203125 C512.60800017 1.28749071 514.65349152 1.25411526 516.69897461 1.22024536 C545.72034001 0.78205715 574.75055905 0.84962685 603.77444172 0.87142873 C610.24433346 0.87578814 616.7142058 0.87265811 623.18409634 0.8678025 C629.54798586 0.86322488 635.91186715 0.86264164 642.27575779 0.86524117 C646.02442952 0.86677148 649.77308823 0.86708898 653.52175903 0.86370468 C670.3719027 0.85048561 687.17126843 1.07874304 704 2 C702.38202311 6.24161106 700.27633854 9.81544995 697.71875 13.546875 C696.81094884 14.88980562 695.90341071 16.23291407 694.99609375 17.57617188 C694.267854 18.64967896 694.267854 18.64967896 693.52490234 19.74487305 C690.8391242 23.7167803 688.18766199 27.7115461 685.53125 31.703125 C684.38019723 33.43003274 683.22898999 35.15683752 682.07763672 36.88354492 C681.20072174 38.19891739 681.20072174 38.19891739 680.30609131 39.54086304 C679.71008118 40.43487823 679.11407104 41.32889343 678.5 42.25 C677.88771545 43.16842682 677.27543091 44.08685364 676.64459229 45.03311157 C671.93164062 52.10253906 667.21868896 59.17196655 662.5057373 66.24139404 C661.59968841 67.60046739 660.69364174 68.95954222 659.78759766 70.31861877 C658.95851495 71.56223283 658.12941402 72.80583473 657.30029297 74.04942322 C655.43576055 76.8460531 653.57159019 79.64292237 651.70800781 82.44018555 C648.7783267 86.83715678 645.84665076 91.23261558 642.8984375 95.6171875 C638.87896667 101.60146354 634.93306196 107.58943154 631.3515625 113.8515625 C630 116 630 116 628.1328125 118.33203125 C625.63445095 121.45727107 623.44712112 124.72217186 621.25 128.0625 C620.36200548 129.40366325 619.47398432 130.74480887 618.5859375 132.0859375 C618.14862305 132.74819336 617.71130859 133.41044922 617.26074219 134.09277344 C615.47355238 136.79639984 613.67438471 139.49197904 611.875 142.1875 C610.90046875 143.64929688 610.90046875 143.64929688 609.90625 145.140625 C605.515625 151.7265625 601.125 158.3125 596.734375 164.8984375 C596.14688477 165.77967285 595.55939453 166.6609082 594.95410156 167.56884766 C591.96940104 172.04589844 588.98470052 176.52294922 586 181 C585.26716797 182.09924805 585.26716797 182.09924805 584.51953125 183.22070312 C583.62874349 184.55688477 582.73795573 185.89306641 581.84716797 187.22924805 C581.24219482 188.13670776 581.24219482 188.13670776 580.625 189.0625 C579.52972256 190.70541617 578.43444303 192.34833094 577.33911133 193.99121094 C576.30234605 195.54645337 575.26576012 197.10181537 574.22924805 198.65722656 C570.78268339 203.82855275 567.33350061 208.9980964 563.87890625 214.1640625 C554.23298006 228.59679764 544.68158017 243.08750172 535.19921875 257.62841797 C531.32545683 263.56814286 527.44598426 269.50412757 523.5625 275.4375 C522.9690831 276.34423462 522.9690831 276.34423462 522.36367798 277.26928711 C516.16496442 286.73665436 509.90552776 296.16212161 503.61700439 305.57000732 C496.64808243 315.99827601 489.78195276 326.4908899 482.94775391 337.0078125 C480.8385604 340.24800749 478.72311283 343.48407529 476.60546875 346.71875 C476.2349791 347.28467361 475.86448944 347.85059723 475.48277283 348.43367004 C474.73523975 349.57546652 473.98769643 350.71725628 473.24014282 351.85903931 C467.85893748 360.07921667 462.4954888 368.30932262 457.1953125 376.58203125 C450.59210359 386.87850853 443.89507146 397.11506639 437.1875 407.34375 C436.76999481 407.98050156 436.35248962 408.61725311 435.92233276 409.27330017 C433.85324385 412.42852284 431.78313167 415.58306728 429.71142578 418.73657227 C426.26875666 423.98100294 422.84029018 429.23202105 419.48828125 434.53515625 C415.09224029 441.47230167 410.4953319 448.2755402 405.90942383 455.08789062 C401.02804765 462.34413043 396.31973539 469.66668222 391.76586914 477.13427734 C389.66698564 480.54042895 387.4717848 483.84056889 385.1875 487.125 C384.45917969 488.17945313 383.73085938 489.23390625 382.98046875 490.3203125 C379.59783097 494.89721489 379.59783097 494.89721489 378 496 C375.07055733 495.74154625 373.43528434 495.3784441 371.19580078 493.43139648 C370.65938965 492.77212158 370.12297852 492.11284668 369.5703125 491.43359375 C368.97379883 490.70897949 368.37728516 489.98436523 367.76269531 489.23779297 C367.18100586 488.49932129 366.59931641 487.76084961 366 487 C365.48276367 486.34789551 364.96552734 485.69579102 364.43261719 485.02392578 C362.8934606 483.05122509 361.38111234 481.0605252 359.875 479.0625 C358.73315372 477.5585324 357.59122435 476.05462788 356.44921875 474.55078125 C355.87478027 473.7923291 355.3003418 473.03387695 354.70849609 472.25244141 C352.04638455 468.74277562 349.36608972 465.24709377 346.6875 461.75 C344.45753458 458.83394357 342.22874542 455.91698894 340 453 C339.37722168 452.18515137 338.75444336 451.37030273 338.11279297 450.53076172 C330.19146663 440.16299835 322.31550204 429.76421866 314.5065918 419.31152344 C310.380304 413.80256251 306.18238 408.35544791 301.9375 402.9375 C296.57626927 396.09406437 291.39065801 389.13859531 286.26074219 382.12060547 C281.58891929 375.74958058 276.77115729 369.50333809 271.90283203 363.28173828 C267.18310134 357.24896971 262.57184576 351.14588955 258 345 C248.8881471 332.79412232 239.68550447 320.65970783 230.37890625 308.6015625 C225.4238235 302.17977526 220.52839915 295.71870148 215.67163086 289.22241211 C211.97965856 284.29019081 208.24930563 279.38874566 204.5 274.5 C200.2370399 268.9414967 196.00695137 263.36038256 191.8125 257.75 C187.53061405 252.02446334 183.20048949 246.33962854 178.83203125 240.6796875 C170.15834864 229.42786056 161.5621207 218.11527686 153.05859375 206.734375 C150.79073322 203.72203654 148.49225517 200.73410834 146.1875 197.75 C142.54284781 193.02973783 138.94550088 188.27657385 135.375 183.5 C130.55730887 177.05528855 125.69391274 170.64656875 120.8125 164.25 C116.68947207 158.84721335 112.56782328 153.44450535 108.5 148 C100.01830608 136.65308893 91.40566744 125.40211274 82.75 114.1875 C78.50603797 108.68686563 74.33709202 103.13216155 70.19628906 97.5534668 C67.97090272 94.56797998 65.72193791 91.63216672 63.31640625 88.7890625 C61.4278944 86.51520506 59.81423428 84.30851581 58.25 81.8125 C56.01481339 78.39763157 53.61971094 75.25409918 51 72.125 C46.90078297 67.20181975 43.08877003 62.11171364 39.3125 56.9375 C34.58128785 50.45767085 29.76416862 44.06303647 24.8125 37.75 C19.99453169 31.60635391 15.28660314 25.40101381 10.71484375 19.07177734 C7.68441386 14.88433664 4.5107689 10.85565085 1.14453125 6.9296875 C-0.29995659 4.49427115 -0.21667785 2.78310661 0 0 Z " fill="#066D66" transform="translate(6,59)"/>
<path d="M0 0 C0.33 0.66 0.66 1.32 1 2 C1.969375 1.814375 2.93875 1.62875 3.9375 1.4375 C8.38413206 0.78143953 12.58084983 1.34865134 17 2 C17 2.33 17 2.66 17 3 C12.38 3 7.76 3 3 3 C6.25823133 9.12580737 10.25414197 14.46207676 14.5 19.9375 C15.94062231 21.81079956 17.38072178 23.68450131 18.8203125 25.55859375 C19.52961914 26.4801123 20.23892578 27.40163086 20.96972656 28.35107422 C23.80120617 32.04534475 26.5915279 35.76950221 29.375 39.5 C32.88273057 44.19351632 36.4169997 48.86368051 40 53.5 C43.70891513 58.30256959 47.36650446 63.1401637 51 68 C55.82983668 74.45788871 60.72168302 80.86306105 65.64892578 87.24707031 C72.47156679 96.09899703 79.25324567 104.9805769 85.9375 113.9375 C90.24053474 119.7034665 94.62900132 125.39633701 99.0625 131.0625 C103.78178849 137.09676846 108.38853936 143.19429512 112.89135742 149.39135742 C117.9163612 156.29260691 123.12224927 163.05330042 128.32519531 169.82080078 C131.13824231 173.4810424 133.94470648 177.14631406 136.75 180.8125 C137.29640137 181.52647949 137.84280273 182.24045898 138.40576172 182.97607422 C142.17773317 187.91041237 145.9099978 192.87318972 149.62890625 197.84765625 C155.57102721 205.74764243 161.59288013 213.58865358 167.6328125 221.4140625 C172.65593989 227.92313111 177.61611172 234.47401588 182.53930664 241.05883789 C186.45481656 246.28976836 190.43162259 251.46944373 194.42578125 256.640625 C197.91010773 261.17011316 201.32158562 265.75430658 204.7434082 270.33105469 C207.88408838 274.52677133 211.06790732 278.68335268 214.30078125 282.80859375 C218.68959766 288.46865353 222.93750034 294.23791785 227.22265625 299.9765625 C231.05133105 305.09496726 234.90613823 310.19064896 238.8125 315.25 C242.74977862 320.35936774 246.66923117 325.48200408 250.5625 330.625 C251.3500769 331.65608887 251.3500769 331.65608887 252.15356445 332.70800781 C252.64042725 333.35350586 253.12729004 333.99900391 253.62890625 334.6640625 C254.06275635 335.23592285 254.49660645 335.8077832 254.94360352 336.39697266 C256 338 256 338 257 341 C253.3230682 339.77435607 252.79775338 338.65001801 250.625 335.5 C247.06188338 330.45661803 243.38652183 325.52226157 239.625 320.625 C239.06321045 319.89224854 238.5014209 319.15949707 237.92260742 318.40454102 C235.40754876 315.12672758 232.88753284 311.85276925 230.36328125 308.58203125 C225.41400864 302.16630749 220.52340298 295.71201872 215.67163086 289.22241211 C211.97965856 284.29019081 208.24930563 279.38874566 204.5 274.5 C200.2370399 268.9414967 196.00695137 263.36038256 191.8125 257.75 C187.53061405 252.02446334 183.20048949 246.33962854 178.83203125 240.6796875 C170.15834864 229.42786056 161.5621207 218.11527686 153.05859375 206.734375 C150.79073322 203.72203654 148.49225517 200.73410834 146.1875 197.75 C142.54284781 193.02973783 138.94550088 188.27657385 135.375 183.5 C130.55730887 177.05528855 125.69391274 170.64656875 120.8125 164.25 C116.68947207 158.84721335 112.56782328 153.44450535 108.5 148 C100.01830608 136.65308893 91.40566744 125.40211274 82.75 114.1875 C78.50603797 108.68686563 74.33709202 103.13216155 70.19628906 97.5534668 C67.97090272 94.56797998 65.72193791 91.63216672 63.31640625 88.7890625 C61.4278944 86.51520506 59.81423428 84.30851581 58.25 81.8125 C56.01481339 78.39763157 53.61971094 75.25409918 51 72.125 C46.90078297 67.20181975 43.08877003 62.11171364 39.3125 56.9375 C34.58128785 50.45767085 29.76416862 44.06303647 24.8125 37.75 C19.99453169 31.60635391 15.28660314 25.40101381 10.71484375 19.07177734 C7.68441386 14.88433664 4.5107689 10.85565085 1.14453125 6.9296875 C-0.29995659 4.49427115 -0.21667785 2.78310661 0 0 Z " fill="#0A433E" transform="translate(6,59)"/>
<path d="M0 0 C4.00887468 3.80515691 7.29560564 7.86234248 10.5625 12.3125 C11.62228362 13.74096867 12.6821828 15.16935162 13.7421875 16.59765625 C14.28069336 17.3261377 14.81919922 18.05461914 15.37402344 18.80517578 C17.96229958 22.29895994 20.57558273 25.77387624 23.1875 29.25 C24.19286076 30.58972938 25.19807235 31.92957071 26.203125 33.26953125 C26.67943359 33.90455566 27.15574219 34.53958008 27.64648438 35.19384766 C28.86475869 36.81953189 30.08094755 38.44677844 31.296875 40.07421875 C38.65683062 49.91883091 46.12256228 59.68369212 53.6328125 69.4140625 C58.05107083 75.13932972 62.42457143 80.89197727 66.75 86.6875 C71.17784844 92.62013914 75.69004333 98.48087627 80.25 104.3125 C84.63921956 109.9268658 88.93293731 115.58533837 93.08984375 121.375 C100.43239992 131.46538394 108.27388144 141.20281163 116 151 C119.06350566 150.70453499 120.55887001 150.516629 122.59765625 148.12890625 C123.08105469 147.28199219 123.56445312 146.43507813 124.0625 145.5625 C124.65675781 144.56605469 125.25101562 143.56960938 125.86328125 142.54296875 C126.19666504 141.9814209 126.53004883 141.41987305 126.87353516 140.84130859 C129.05281137 137.27908466 131.41725926 133.83777789 133.75 130.375 C138.10909676 123.86480141 142.40690113 117.31914315 146.65234375 110.734375 C150.49907011 104.7686892 154.37063158 98.81950732 158.25 92.875 C158.88107666 91.90780029 159.51215332 90.94060059 160.16235352 89.9440918 C162.76018185 85.96311936 165.3586237 81.98254752 167.95703125 78.00195312 C169.88828844 75.04314326 171.81926214 72.08414877 173.75 69.125 C174.37076416 68.17359131 174.99152832 67.22218262 175.63110352 66.24194336 C179.93719812 59.63865603 184.22833121 53.02586172 188.50097656 46.40087891 C190.96836924 42.57828207 193.46683457 38.77936636 196 35 C197 38 197 38 196.22167969 39.71630859 C195.79274414 40.35391113 195.36380859 40.99151367 194.921875 41.6484375 C194.42961426 42.39230713 193.93735352 43.13617676 193.43017578 43.90258789 C192.87571777 44.71848389 192.32125977 45.53437988 191.75 46.375 C190.55446259 48.17302756 189.35916519 49.97121471 188.1640625 51.76953125 C187.5030957 52.75646973 186.84212891 53.7434082 186.16113281 54.76025391 C182.52975155 60.20404394 178.95298702 65.683543 175.37072754 71.159729 C174.15352165 73.01893497 172.93407272 74.87664837 171.71386719 76.73388672 C168.26992938 81.97892404 164.84093351 87.23100325 161.48828125 92.53515625 C157.09224029 99.47230167 152.4953319 106.2755402 147.90942383 113.08789062 C143.02804765 120.34413043 138.31973539 127.66668222 133.76586914 135.13427734 C131.66698564 138.54042895 129.4717848 141.84056889 127.1875 145.125 C126.45917969 146.17945313 125.73085938 147.23390625 124.98046875 148.3203125 C121.59783097 152.89721489 121.59783097 152.89721489 120 154 C117.07055733 153.74154625 115.43528434 153.3784441 113.19580078 151.43139648 C112.65938965 150.77212158 112.12297852 150.11284668 111.5703125 149.43359375 C110.67554199 148.34667236 110.67554199 148.34667236 109.76269531 147.23779297 C109.18100586 146.49932129 108.59931641 145.76084961 108 145 C107.48276367 144.34789551 106.96552734 143.69579102 106.43261719 143.02392578 C104.8934606 141.05122509 103.38111234 139.0605252 101.875 137.0625 C100.73315372 135.5585324 99.59122435 134.05462788 98.44921875 132.55078125 C97.87478027 131.7923291 97.3003418 131.03387695 96.70849609 130.25244141 C94.04638455 126.74277562 91.36608972 123.24709377 88.6875 119.75 C86.45753458 116.83394357 84.22874542 113.91698894 82 111 C81.37722168 110.18515137 80.75444336 109.37030273 80.11279297 108.53076172 C72.19146663 98.16299835 64.31550204 87.76421866 56.5065918 77.31152344 C52.380304 71.80256251 48.18238 66.35544791 43.9375 60.9375 C38.57626927 54.09406437 33.39065801 47.13859531 28.26074219 40.12060547 C24.16008179 34.52848222 19.95864591 29.02533836 15.6875 23.5625 C15.10726074 22.8192749 14.52702148 22.0760498 13.92919922 21.31030273 C12.81118001 19.87863036 11.69302113 18.44706704 10.57470703 17.015625 C10.05505371 16.35046875 9.53540039 15.6853125 9 15 C8.50999512 14.37351562 8.01999023 13.74703125 7.51513672 13.1015625 C6.21078043 11.42760052 4.91628894 9.74655053 3.625 8.0625 C2.91601562 7.14597656 2.20703125 6.22945313 1.4765625 5.28515625 C0 3 0 3 0 0 Z " fill="#0B423C" transform="translate(264,401)"/>
<path d="M0 0 C8.26613756 3.77382025 14.66202956 11.48002174 21 17.8125 C21.77472656 18.57498047 22.54945313 19.33746094 23.34765625 20.12304688 C24.07855469 20.85201172 24.80945313 21.58097656 25.5625 22.33203125 C26.22378906 22.98921143 26.88507813 23.6463916 27.56640625 24.32348633 C29 26 29 26 29 28 C29.55171875 28.226875 30.1034375 28.45375 30.671875 28.6875 C33.68692417 30.38725926 35.81230369 32.54804816 38.25 35 C39.58804688 36.3303125 39.58804688 36.3303125 40.953125 37.6875 C43 40 43 40 43 42 C43.59324696 42.26806867 44.18649391 42.53613733 44.79771805 42.81232929 C47.02208627 44.01191092 48.46214514 45.21787704 50.23651123 47.00273132 C50.85309601 47.61801193 51.46968079 48.23329254 52.10494995 48.86721802 C52.76995514 49.5409848 53.43496033 50.21475159 54.12011719 50.90893555 C54.82961517 51.61974777 55.53911316 52.33056 56.27011108 53.06291199 C58.61699214 55.41628866 60.95681801 57.77655823 63.296875 60.13671875 C64.93058105 61.77669764 66.56480494 63.41616081 68.19952393 65.05513 C72.5079151 69.3768349 76.81071509 73.70406044 81.11193848 78.03289795 C87.9808438 84.944871 94.85635215 91.8502584 101.73526764 98.75226784 C104.13052671 101.15769493 106.52230844 103.56653941 108.91375732 105.97575378 C110.39648705 107.46531865 111.87933032 108.95477049 113.36230469 110.4440918 C114.34766708 111.43956024 114.34766708 111.43956024 115.35293579 112.45513916 C119.18134119 116.29278628 123.1325658 119.92029305 127.23534966 123.46273136 C129.24620195 125.21447792 131.15969734 127.03907545 133.04174805 128.92822266 C133.72573166 129.6122818 134.40971527 130.29634094 135.11442566 131.00112915 C135.82303238 131.71489716 136.5316391 132.42866516 137.26171875 133.1640625 C138.01540237 133.91916107 138.769086 134.67425964 139.54560852 135.45223999 C141.92862256 137.84079761 144.30812215 140.23282071 146.6875 142.625 C148.29468818 144.23721216 149.90210807 145.84919338 151.50976562 147.4609375 C154.45675724 150.41605545 157.40243011 153.37247356 160.34643555 156.33056641 C160.97728561 156.96401474 161.60813568 157.59746307 162.25810242 158.25010681 C163.34625483 159.34325403 164.43363553 160.43717061 165.51985168 161.53224182 C168.67372499 164.70476192 171.99154711 167.58629898 175.42578125 170.44921875 C175.94527344 170.96097656 176.46476563 171.47273437 177 172 C177 172.66 177 173.32 177 174 C177.57741943 174.25144775 178.15483887 174.50289551 178.74975586 174.76196289 C181.28932934 176.15918293 182.97170087 177.7447227 185.00390625 179.80859375 C186.11475586 180.92911133 186.11475586 180.92911133 187.24804688 182.07226562 C188.01181641 182.85279297 188.77558594 183.63332031 189.5625 184.4375 C190.33013672 185.21416016 191.09777344 185.99082031 191.88867188 186.79101562 C193.31552646 188.23528605 194.7403159 189.68160175 196.16235352 191.13061523 C197.33069948 192.31913988 198.52198937 193.48584883 199.74194336 194.62133789 C201 196 201 196 201 198 C200.34 198 199.68 198 199 198 C197.80078125 196.7421875 197.80078125 196.7421875 196.3125 194.875 C192.96656316 190.94420428 189.36402911 187.475463 185.5625 184 C177.27582061 176.40315976 169.37546702 168.4351099 161.47680664 160.43945312 C160.97689209 159.93534409 160.47697754 159.43123505 159.96191406 158.91184998 C158.59691839 157.53521172 157.23499108 156.15553296 155.87329102 154.77563477 C153.77685775 152.75045423 151.68377897 150.85720773 149.47094727 148.97094727 C143.97775409 144.2050334 138.90253301 139.01369739 133.78138351 133.85654831 C131.92485356 131.98710252 130.06508444 130.12093204 128.20449829 128.25552368 C124.25849456 124.29817038 120.3164571 120.33688102 116.375 116.375 C111.79656038 111.77288192 107.21646756 107.17243422 102.63212967 102.57619095 C100.8077203 100.74534132 98.98636917 98.91148713 97.16513062 97.07748413 C96.03911011 95.94782883 94.91294769 94.81831496 93.78662109 93.68896484 C93.03834297 92.93293724 93.03834297 92.93293724 92.27494812 92.16163635 C88.99979189 88.88599537 85.5697788 85.94102783 82 83 C80.88092608 81.78189299 79.79266227 80.5341209 78.75 79.25 C76.03378843 76.05304302 73.15116748 73.26920778 70 70.5 C66.2297222 67.18534489 62.94872865 63.74194696 59.71875 59.91015625 C57.34444952 57.27144503 54.71209847 55.01239768 51.9921875 52.73828125 C49.54343406 50.60162384 47.29166128 48.30443458 45 46 C43.43420121 44.43876314 41.86802713 42.87790259 40.30151367 41.31738281 C35.86155349 36.89333593 31.42373481 32.46715226 26.9875288 28.03934097 C24.31013323 25.36719562 21.63179563 22.69600784 18.95141602 20.02685547 C16.34993777 17.4361992 13.75087181 14.84314574 11.1534977 12.24837494 C10.16354349 11.26027266 9.17270758 10.27305294 8.18099022 9.28672028 C6.80219965 7.91513313 5.42676594 6.54017394 4.05151367 5.16503906 C3.26717453 4.38292053 2.48283539 3.600802 1.67472839 2.79498291 C0 1 0 1 0 0 Z " fill="#084C47" transform="translate(240,83)"/>
<path d="M0 0 C0.99 0.495 0.99 0.495 2 1 C-1.16835405 4.89254926 -4.43650552 8.45680766 -8 12 C-8.47545761 12.4729097 -8.95091522 12.9458194 -9.44078064 13.43305969 C-10.46148559 14.44819881 -11.48240485 15.46312245 -12.50350952 16.4778595 C-14.84700152 18.80780819 -17.18769673 21.14055885 -19.52832031 23.47338867 C-20.7549572 24.69499836 -21.98249032 25.91570881 -23.2109375 27.13549805 C-29.01663711 32.90148592 -34.77820185 38.62424238 -40.08154297 44.86108398 C-44.92762789 50.26405548 -50.21517423 55.27417577 -55.375 60.375 C-57.73984331 62.71327915 -60.10136242 65.05484369 -62.4609375 67.3984375 C-63.27333389 68.19838638 -63.27333389 68.19838638 -64.10214233 69.01449585 C-66.90213794 71.74014611 -66.90213794 71.74014611 -69 75 C-69.66 75 -70.32 75 -71 75 C-68.4868312 80.48794004 -64.09086678 83.18267959 -59.3125 86.5625 C-57.5789415 87.81312926 -55.84587583 89.06444193 -54.11328125 90.31640625 C-53.24783691 90.93789551 -52.38239258 91.55938477 -51.49072266 92.19970703 C-47.95814189 94.75305447 -44.47730965 97.37215693 -41 100 C-35.19411816 104.37104872 -29.35528572 108.69538627 -23.5 113 C-15.55749176 118.84000884 -7.65684517 124.73322748 0.22021484 130.66113281 C3.85558673 133.39588993 7.49680343 136.12285737 11.13671875 138.8515625 C13.09889858 140.3238666 15.05977163 141.79791344 17.01953125 143.2734375 C23.63311147 148.24847987 30.29161102 153.15369717 37 158 C38.10625732 158.79954102 38.10625732 158.79954102 39.23486328 159.61523438 C44.48848615 163.41212818 49.74364979 167.20688292 55 171 C54.67 171.99 54.34 172.98 54 174 C54 173.34 54 172.68 54 172 C53.28972656 171.75378906 52.57945312 171.50757813 51.84765625 171.25390625 C48.63756954 169.84041128 46.21399454 168.07936722 43.4375 165.9375 C42.39722656 165.1434375 41.35695313 164.349375 40.28515625 163.53125 C39.1898414 162.68784114 38.09479383 161.84408507 37 161 C34.79658781 159.30594803 32.58736066 157.61984056 30.375 155.9375 C29.39273438 155.18339844 28.41046875 154.42929688 27.3984375 153.65234375 C25.21092124 151.81089152 25.21092124 151.81089152 23 152 C21.87179247 150.86525845 20.74731725 149.72665275 19.63769531 148.57373047 C16.16698692 145.23858045 12.21556485 142.45305613 8.375 139.5625 C7.45074219 138.86310303 6.52648437 138.16370605 5.57421875 137.44311523 C-14.39856707 119.27786883 -14.39856707 119.27786883 -37 108 C-37 107.01 -37 106.02 -37 105 C-37.57564697 104.72994141 -38.15129395 104.45988281 -38.74438477 104.18164062 C-41.03665324 102.9807986 -43.01090947 101.63244685 -45.08984375 100.09375 C-45.8686792 99.51931152 -46.64751465 98.94487305 -47.44995117 98.35302734 C-48.27084229 97.74152832 -49.0917334 97.1300293 -49.9375 96.5 C-50.77837158 95.87432129 -51.61924316 95.24864258 -52.4855957 94.60400391 C-54.18614224 93.33673931 -55.88561531 92.06803289 -57.58398438 90.79785156 C-59.7583515 89.17982008 -61.94596373 87.58250609 -64.140625 85.9921875 C-65.32334 85.12036567 -66.50566269 84.24801126 -67.6875 83.375 C-68.72261719 82.61960937 -69.75773437 81.86421875 -70.82421875 81.0859375 C-71.54222656 80.39757812 -72.26023437 79.70921875 -73 79 C-73 75 -73 75 -71.64233398 73.20410156 C-70.70369507 72.30643066 -70.70369507 72.30643066 -69.74609375 71.390625 C-69.05580078 70.71773438 -68.36550781 70.04484375 -67.65429688 69.3515625 C-66.92275391 68.65804687 -66.19121094 67.96453125 -65.4375 67.25 C-59.35759732 61.40914503 -59.35759732 61.40914503 -53.67578125 55.1875 C-49.00654346 49.74639364 -43.85099563 44.78066017 -38.75 39.75 C-36.78351187 37.81024083 -34.8204701 35.86708463 -32.859375 33.921875 C-31.99795898 33.07206055 -31.13654297 32.22224609 -30.24902344 31.34667969 C-27.98960378 29.09470587 -27.98960378 29.09470587 -26.32128906 26.69238281 C-25.88526367 26.13389648 -25.44923828 25.57541016 -25 25 C-24.34 25 -23.68 25 -23 25 C-22.65316162 24.1642041 -22.65316162 24.1642041 -22.29931641 23.31152344 C-20.65365415 20.3838402 -18.60024749 18.37614812 -16.2109375 16.015625 C-15.74765045 15.55516785 -15.2843634 15.09471069 -14.80703735 14.62030029 C-13.33434102 13.15874922 -11.85482597 11.70432832 -10.375 10.25 C-9.37193678 9.25697389 -8.36932743 8.26348911 -7.3671875 7.26953125 C-4.91669165 4.84102059 -2.4600333 2.41885325 0 0 Z " fill="#0A4B45" transform="translate(459,90)"/>
<path d="M0 0 C0.495 1.485 0.495 1.485 1 3 C-0.35323283 5.37195868 -1.74266691 7.5276732 -3.3125 9.75 C-4.25155769 11.11701195 -5.19035302 12.48420415 -6.12890625 13.8515625 C-6.61117676 14.54668945 -7.09344727 15.24181641 -7.59033203 15.95800781 C-9.68218904 18.98819347 -11.71548345 22.05616203 -13.75 25.125 C-14.57777981 26.36741756 -15.40591882 27.60959585 -16.234375 28.8515625 C-16.67201172 29.50801758 -17.10964844 30.16447266 -17.56054688 30.84082031 C-23.19759115 39.29638672 -28.83463542 47.75195312 -34.47167969 56.20751953 C-34.92188477 56.88282715 -35.37208984 57.55813477 -35.8359375 58.25390625 C-40.5234375 65.28515625 -40.5234375 65.28515625 -41.66088867 66.99121094 C-42.69765395 68.54645337 -43.73423988 70.10181537 -44.77075195 71.65722656 C-48.21731661 76.82855275 -51.66649939 81.9980964 -55.12109375 87.1640625 C-64.74243844 101.56001752 -74.26893553 116.01400598 -83.72607422 130.51855469 C-86.22850736 134.35280149 -88.74096325 138.18044869 -91.25390625 142.0078125 C-92.13680208 143.35302606 -93.01969598 144.6982409 -93.90258789 146.04345703 C-95.19375057 148.01061275 -96.48524118 149.97754894 -97.77780151 151.94378662 C-98.96741326 153.75356141 -100.15570933 155.56419362 -101.34375 157.375 C-102.02630859 158.41398438 -102.70886719 159.45296875 -103.41210938 160.5234375 C-104.9818771 162.87517753 -104.9818771 162.87517753 -106 165 C-106.66 165 -107.32 165 -108 165 C-106.67204345 161.41196356 -105.07891474 158.33332515 -103 155.125 C-102.06220703 153.67673828 -102.06220703 153.67673828 -101.10546875 152.19921875 C-97.0999379 146.11289265 -93.05532365 140.05322944 -89 134 C-80.65824321 121.56025412 -80.65824321 121.56025412 -72.5 109 C-67.59813749 101.32138577 -62.53011833 93.75533557 -57.46240234 86.18554688 C-55.2622455 82.89743267 -53.06866209 79.60494905 -50.875 76.3125 C-50.05993328 75.08981879 -49.24482934 73.86716238 -48.4296875 72.64453125 C-47.82979004 71.74468506 -47.82979004 71.74468506 -47.21777344 70.82666016 C-45.98111979 68.97167969 -44.74446615 67.11669922 -43.5078125 65.26171875 C-42.8880957 64.33214355 -42.8880957 64.33214355 -42.25585938 63.38378906 C-40.57845052 60.86767578 -38.90104167 58.3515625 -37.22363281 55.83544922 C-36.81983398 55.22975098 -36.41603516 54.62405273 -36 54 C-35.6194043 53.42910645 -35.23880859 52.85821289 -34.84667969 52.27001953 C-34.47188477 51.70782715 -34.09708984 51.14563477 -33.7109375 50.56640625 C-32.10677083 48.16015625 -30.50260417 45.75390625 -28.8984375 43.34765625 C-28.44823242 42.67234863 -27.99802734 41.99704102 -27.53417969 41.30126953 C-16.42724609 24.64086914 -16.42724609 24.64086914 -5.3203125 7.98046875 C-4.66675781 7.00013672 -4.66675781 7.00013672 -4 6 C-2.66666667 4 -1.33333333 2 0 0 Z " fill="#0B433D" transform="translate(625,186)"/>
<path d="M0 0 C0.66 0 1.32 0 2 0 C0.34814731 3.91725066 -2.30421439 6.89091773 -5.0625 10.0625 C-6.06587484 11.23110957 -7.06846857 12.40039022 -8.0703125 13.5703125 C-8.56821289 14.15071289 -9.06611328 14.73111328 -9.57910156 15.32910156 C-11.56882016 17.66890123 -13.50420597 20.05097953 -15.4375 22.4375 C-19.39276025 27.29843701 -23.45973471 32.0540756 -27.55175781 36.79956055 C-30.65426631 40.40545946 -33.69458523 44.05194825 -36.6875 47.75 C-39.55278405 51.28247113 -42.49875996 54.70075112 -45.5625 58.0625 C-49.09487966 61.94690375 -52.40871048 65.94185585 -55.66015625 70.0625 C-58.60784467 73.76310383 -61.61394221 77.41339453 -64.625 81.0625 C-65.2216748 81.78590576 -65.81834961 82.50931152 -66.43310547 83.25463867 C-67.66565103 84.74853895 -68.89840113 86.24227048 -70.13134766 87.73583984 C-72.59538766 90.72140386 -75.05718508 93.7088105 -77.51831055 96.69677734 C-78.7082345 98.14139586 -79.8984979 99.58573484 -81.08911133 101.02978516 C-83.59042863 104.06509951 -86.08863623 107.10240531 -88.5625 110.16015625 C-93.52349649 116.28388629 -98.67157305 122.19289639 -104 128 C-104 124.60895965 -103.64697561 124.19771538 -101.578125 121.69921875 C-100.79091064 120.73894775 -100.79091064 120.73894775 -99.98779297 119.75927734 C-99.41432129 119.07559082 -98.84084961 118.3919043 -98.25 117.6875 C-97.66234863 116.9754541 -97.07469727 116.2634082 -96.46923828 115.52978516 C-92.17650655 110.34834629 -87.79535345 105.24426967 -83.38842773 100.15991211 C-79.41413745 95.55026047 -75.66521213 90.78848399 -71.93969727 85.97705078 C-68.51406283 81.58145165 -64.86915176 77.44392264 -61.09765625 73.33984375 C-59.05327408 71.05942491 -57.14307856 68.71935772 -55.25 66.3125 C-51.81178163 61.9478156 -48.21521932 57.74706699 -44.5625 53.5625 C-40.04243042 48.38289096 -35.62560336 43.14162773 -31.30078125 37.796875 C-28.62752558 34.54721276 -25.8791662 31.368516 -23.125 28.1875 C-18.99449529 23.40911175 -15.00625854 18.54544039 -11.125 13.5625 C-3.44914688 3.71446588 -3.44914688 3.71446588 0 0 Z " fill="#0A4843" transform="translate(509,266)"/>
<path d="M0 0 C7.59 0 15.18 0 23 0 C21.27177002 4.32057496 19.31341789 7.76135259 16.71875 11.546875 C15.81094884 12.88980562 14.90341071 14.23291407 13.99609375 15.57617188 C13.51060059 16.29184326 13.02510742 17.00751465 12.52490234 17.74487305 C9.8391242 21.7167803 7.18766199 25.7115461 4.53125 29.703125 C3.38019723 31.43003274 2.22898999 33.15683752 1.07763672 34.88354492 C0.20072174 36.19891739 0.20072174 36.19891739 -0.69390869 37.54086304 C-1.58792389 38.88188583 -1.58792389 38.88188583 -2.5 40.25 C-3.11228455 41.16842682 -3.72456909 42.08685364 -4.35540771 43.03311157 C-11.42483521 53.63725281 -11.42483521 53.63725281 -18.4942627 64.24139404 C-19.40031159 65.60046739 -20.30635826 66.95954222 -21.21240234 68.31861877 C-22.04148505 69.56223283 -22.87058598 70.80583473 -23.69970703 72.04942322 C-25.56423945 74.8460531 -27.42840981 77.64292237 -29.29199219 80.44018555 C-32.2216733 84.83715678 -35.15334924 89.23261558 -38.1015625 93.6171875 C-42.15542163 99.65266158 -46.0732327 105.72424589 -49.76953125 111.98828125 C-52.58486607 116.59113024 -56.14722212 120.25424372 -60 124 C-58.52105761 119.81839714 -56.38146016 116.31108695 -53.90625 112.6640625 C-53.49122223 112.04435074 -53.07619446 111.42463898 -52.64859009 110.78614807 C-51.26994943 108.72956248 -49.88493064 106.67735393 -48.5 104.625 C-47.52668105 103.17522158 -46.55387249 101.7251004 -45.58154297 100.2746582 C-43.49722842 97.16611433 -41.4108063 94.05899911 -39.32324219 90.95263672 C-34.13615725 83.22857051 -28.98217798 75.482401 -23.82446289 67.7387085 C-21.11591778 63.67268073 -18.40556084 59.60786131 -15.6953125 55.54296875 C-14.69627984 54.04443974 -13.69725606 52.54590481 -12.69824219 51.04736328 C-3.82164001 37.73246002 -3.82164001 37.73246002 5.05496216 24.41755676 C5.78185745 23.32721382 5.78185745 23.32721382 6.5234375 22.21484375 C8.01171875 19.98242188 8.01171875 19.98242188 9.5 17.75 C10.26231934 16.606521 10.26231934 16.606521 11.04003906 15.43994141 C11.5450293 14.68245605 12.05001953 13.9249707 12.5703125 13.14453125 C13.01842285 12.47236572 13.4665332 11.8002002 13.92822266 11.10766602 C15.95214844 8.07177734 17.97607422 5.03588867 20 2 C13.4 1.67 6.8 1.34 0 1 C0 0.67 0 0.34 0 0 Z " fill="#0B4540" transform="translate(687,61)"/>
<path d="M0 0 C1 3 1 3 0.06640625 4.90332031 C-0.42988281 5.62100586 -0.92617188 6.33869141 -1.4375 7.078125 C-1.99477783 7.89692139 -2.55205566 8.71571777 -3.1262207 9.55932617 C-3.74456787 10.44724854 -4.36291504 11.3351709 -5 12.25 C-6.3071975 14.16714569 -7.61314606 16.08514345 -8.91796875 18.00390625 C-9.59649902 18.99664551 -10.2750293 19.98938477 -10.97412109 21.01220703 C-14.15018261 25.69630451 -17.23208385 30.44017591 -20.3125 35.1875 C-21.55845208 37.10165473 -22.80454873 39.01571535 -24.05078125 40.9296875 C-24.68709473 41.90776367 -25.3234082 42.88583984 -25.97900391 43.89355469 C-29.2808275 48.96874234 -32.58387769 54.04311482 -35.89242554 59.11392212 C-36.96381438 60.75700568 -38.03333176 62.40130907 -39.1027832 64.0456543 C-43.28280101 70.4511796 -47.56936002 76.76508573 -52 83 C-52.33 82.01 -52.66 81.02 -53 80 C-51.64476568 77.57349614 -50.24799224 75.36348686 -48.671875 73.0859375 C-48.21177032 72.40351486 -47.75166565 71.72109222 -47.27761841 71.01799011 C-45.7776446 68.79724741 -44.26382822 66.5863158 -42.75 64.375 C-41.72035731 62.85487009 -40.69187378 61.3339544 -39.66455078 59.81225586 C-38.14653132 57.56409982 -36.62781878 55.31645567 -35.10513306 53.07145691 C-31.62763459 47.94422875 -28.21127436 42.78296448 -24.875 37.5625 C-19.8257911 29.69117096 -14.638727 21.91436723 -9.43505859 14.14453125 C-6.95151085 10.43315266 -4.47615527 6.71631292 -2 3 C-1.34 2.01 -0.68 1.02 0 0 Z " fill="#0B433D" transform="translate(515,352)"/>
<path d="M0 0 C7.59 0 15.18 0 23 0 C21.23433856 4.4141536 19.18537148 7.94826399 16.53125 11.8203125 C15.62591635 13.15891889 14.7209813 14.49779493 13.81640625 15.83691406 C13.11765381 16.86733826 13.11765381 16.86733826 12.40478516 17.9185791 C10.15008169 21.25929415 7.93624203 24.62671371 5.71875 27.9921875 C4.4167593 29.95996613 3.11371455 31.92704365 1.81054688 33.89404297 C0.92095382 35.23870728 0.03298704 36.58444862 -0.85351562 37.93115234 C-2.15849061 39.91269359 -3.46925052 41.89029262 -4.78125 43.8671875 C-5.17703247 44.47118378 -5.57281494 45.07518005 -5.98059082 45.69747925 C-8.77226098 49.88613049 -8.77226098 49.88613049 -11 51 C-9.68826101 47.46640769 -8.13746581 44.42284368 -6.08984375 41.26171875 C-5.15760986 39.8219165 -5.15760986 39.8219165 -4.20654297 38.35302734 C0.30412188 31.48135819 4.86894974 24.64575117 9.4375 17.8125 C10.46560332 16.27285892 11.49359888 14.73314589 12.52148438 13.19335938 C15.01288593 9.46127598 17.50648443 5.7306747 20 2 C13.4 1.67 6.8 1.34 0 1 C0 0.67 0 0.34 0 0 Z " fill="#0C3E39" transform="translate(687,61)"/>
<path d="M0 0 C3.04581486 1.36113013 5.13839026 2.89330096 7.48339844 5.25634766 C8.14378113 5.91688141 8.80416382 6.57741516 9.48455811 7.25796509 C10.18574768 7.96947723 10.88693726 8.68098938 11.609375 9.4140625 C12.33618469 10.14370209 13.06299438 10.87334167 13.81182861 11.62509155 C16.12929198 13.9537388 18.4396995 16.28924826 20.75 18.625 C22.32115444 20.20618653 23.89276371 21.78692125 25.46484375 23.3671875 C29.31518653 27.2395669 33.15976117 31.11760171 37 35 C36.505 35.99 36.505 35.99 36 37 C35.59323532 36.59101471 35.18647064 36.18202942 34.76737976 35.76065063 C30.53650079 31.50766259 26.30211736 27.25818719 22.06567383 23.01074219 C20.48469172 21.42472872 18.90460796 19.83781925 17.32543945 18.25 C15.05655242 15.96899513 12.78446331 13.69122303 10.51171875 11.4140625 C9.80536789 10.70255035 9.09901703 9.99103821 8.3712616 9.25796509 C7.71080338 8.59743134 7.05034515 7.93689758 6.36987305 7.25634766 C5.79029343 6.67454742 5.21071381 6.09274719 4.61357117 5.49331665 C2.86384869 3.79508982 2.86384869 3.79508982 0 2 C0 1.34 0 0.68 0 0 Z " fill="#063D38" transform="translate(325,167)"/>
<path d="M0 0 C1.28589593 3.85768778 0.43749924 5.04706974 -1.08984375 8.76171875 C-1.54423828 9.87998047 -1.99863281 10.99824219 -2.46679688 12.15039062 C-2.95212891 13.31763672 -3.43746094 14.48488281 -3.9375 15.6875 C-4.65969727 17.45577148 -4.65969727 17.45577148 -5.39648438 19.25976562 C-6.58925776 22.17674608 -7.79072299 25.0898314 -9 28 C-7.68 27.67 -6.36 27.34 -5 27 C-6.8125 30 -6.8125 30 -9 33 C-9.99 33 -10.98 33 -12 33 C-11.50355238 25.8635655 -8.69686607 19.68737411 -6 13.125 C-5.5359375 11.97257812 -5.071875 10.82015625 -4.59375 9.6328125 C-1.15438988 1.15438988 -1.15438988 1.15438988 0 0 Z " fill="#084843" transform="translate(399,380)"/>
<path d="M0 0 C0.99 0.33 1.98 0.66 3 1 C2.55084229 1.4439209 2.10168457 1.8878418 1.63891602 2.34521484 C-0.38915607 4.35253603 -2.41336416 6.36370999 -4.4375 8.375 C-5.14455078 9.07367188 -5.85160156 9.77234375 -6.58007812 10.4921875 C-7.25361328 11.1625 -7.92714844 11.8328125 -8.62109375 12.5234375 C-9.2442749 13.14138184 -9.86745605 13.75932617 -10.50952148 14.39599609 C-12.09048151 15.94660067 -12.09048151 15.94660067 -13 18 C-13.66 18 -14.32 18 -15 18 C-12.59983652 22.94151304 -9.47726973 25.04331244 -5 28 C-5.99 28.33 -6.98 28.66 -8 29 C-10.48046875 27.34765625 -10.48046875 27.34765625 -13.1875 25.0625 C-14.08855469 24.31097656 -14.98960937 23.55945313 -15.91796875 22.78515625 C-16.60503906 22.19605469 -17.29210937 21.60695312 -18 21 C-16.61403133 17.86594332 -15.00928844 15.78165818 -12.55859375 13.3984375 C-11.55989258 12.41617188 -11.55989258 12.41617188 -10.54101562 11.4140625 C-9.84685547 10.74117187 -9.15269531 10.06828125 -8.4375 9.375 C-7.05901463 8.03088131 -5.68260599 6.68462847 -4.30859375 5.3359375 C-3.39291626 4.44720947 -3.39291626 4.44720947 -2.45874023 3.54052734 C-0.90189218 2.04565952 -0.90189218 2.04565952 0 0 Z " fill="#083B36" transform="translate(403,147)"/>
<path d="M0 0 C0.60755127 0.19239258 1.21510254 0.38478516 1.84106445 0.58300781 C1.23085449 0.90736816 0.62064453 1.23172852 -0.00805664 1.56591797 C-6.98877633 5.48480121 -12.2655065 10.20084473 -17.78393555 15.95800781 C-18.59733398 16.78945312 -19.41073242 17.62089844 -20.2487793 18.47753906 C-22.22841268 20.50375206 -24.19799257 22.53872957 -26.15893555 24.58300781 C-26.15893555 21.09946576 -25.70858396 20.69873728 -23.47143555 18.20800781 C-22.92616211 17.60085937 -22.38088867 16.99371094 -21.8190918 16.36816406 C-21.27124023 15.7790625 -20.72338867 15.18996094 -20.15893555 14.58300781 C-19.68327148 14.06609375 -19.20760742 13.54917969 -18.7175293 13.01660156 C-17.57947287 11.8241902 -16.37401453 10.69683021 -15.15893555 9.58300781 C-14.49893555 9.58300781 -13.83893555 9.58300781 -13.15893555 9.58300781 C-12.82893555 8.59300781 -12.49893555 7.60300781 -12.15893555 6.58300781 C-10.0144043 4.72363281 -10.0144043 4.72363281 -7.34643555 2.83300781 C-6.47374023 2.19878906 -5.60104492 1.56457031 -4.7019043 0.91113281 C-2.15893555 -0.41699219 -2.15893555 -0.41699219 0 0 Z " fill="#0A413E" transform="translate(489.158935546875,64.4169921875)"/>
<path d="M0 0 C0.33 0.99 0.66 1.98 1 3 C0.56429688 3.42410156 0.12859375 3.84820312 -0.3203125 4.28515625 C-4.45008483 8.35235627 -8.28041129 12.55463788 -12 17 C-12 13.53403258 -11.57421137 13.14155249 -9.375 10.64453125 C-8.83359375 10.02255859 -8.2921875 9.40058594 -7.734375 8.75976562 C-7.16203125 8.11716797 -6.5896875 7.47457031 -6 6.8125 C-5.42765625 6.15830078 -4.8553125 5.50410156 -4.265625 4.83007812 C-2.85032102 3.21427275 -1.42600082 1.60637294 0 0 Z " fill="#05766F" transform="translate(434,359)"/>
<path d="M0 0 C0.66 0.66 1.32 1.32 2 2 C0.95458849 3.49129308 -0.11208814 4.96769402 -1.1875 6.4375 C-1.77917969 7.26121094 -2.37085938 8.08492187 -2.98046875 8.93359375 C-5.31932973 11.32674163 -6.7220036 11.68861865 -10 12 C-10.66 10.68 -11.32 9.36 -12 8 C-9.03 8.495 -9.03 8.495 -6 9 C-3.59927045 6.11912454 -1.52708963 3.43595166 0 0 Z " fill="#0F4B45" transform="translate(390,543)"/>
<path d="M0 0 C0 3.71861456 -0.9584939 4.58274556 -3.25 7.4375 C-3.85328125 8.19933594 -4.4565625 8.96117187 -5.078125 9.74609375 C-6.95561359 11.9479452 -8.92506359 13.98474096 -11 16 C-11.66 15.67 -12.32 15.34 -13 15 C-12.39671875 14.33613281 -11.7934375 13.67226563 -11.171875 12.98828125 C-10.37265625 12.10527344 -9.5734375 11.22226562 -8.75 10.3125 C-7.96109375 9.44238281 -7.1721875 8.57226562 -6.359375 7.67578125 C-4.15500436 5.17579137 -2.05866059 2.62054272 0 0 Z " fill="#067870" transform="translate(473,312)"/>
<path d="M0 0 C0.66 0.33 1.32 0.66 2 1 C-2.29 5.29 -6.58 9.58 -11 14 C-11 9.89707103 -9.37198901 8.8472941 -6.625 5.875 C-5.40683594 4.54082031 -5.40683594 4.54082031 -4.1640625 3.1796875 C-2 1 -2 1 0 0 Z " fill="#084540" transform="translate(436,114)"/>
<path d="M0 0 C0.66 0 1.32 0 2 0 C0.59928507 5.29158974 -2.85487245 7.77478044 -7 11 C-5.68747786 8.25342589 -4.24706499 5.74276346 -2.5 3.25 C-2.0771875 2.63640625 -1.654375 2.0228125 -1.21875 1.390625 C-0.8165625 0.93171875 -0.414375 0.4728125 0 0 Z " fill="#094540" transform="translate(401,395)"/>
<path d="M0 0 C0.66 0.33 1.32 0.66 2 1 C-0.64 3.97 -3.28 6.94 -6 10 C-6 6.41087588 -5.33563446 5.89142971 -3 3.3125 C-2.443125 2.68988281 -1.88625 2.06726563 -1.3125 1.42578125 C-0.879375 0.95527344 -0.44625 0.48476563 0 0 Z " fill="#09413C" transform="translate(411,384)"/>
<path d="M0 0 C5.57142857 5.14285714 5.57142857 5.14285714 6 9 C0.42857143 3.85714286 0.42857143 3.85714286 0 0 Z " fill="#0A4944" transform="translate(310,462)"/>
<path d="M0 0 C0.66 0.33 1.32 0.66 2 1 C-0.31 3.64 -2.62 6.28 -5 9 C-5 4.61031544 -2.87194899 3.23094261 0 0 Z " fill="#08413C" transform="translate(455,331)"/>
<path d="M0 0 C0.33 0.99 0.66 1.98 1 3 C0.34 3 -0.32 3 -1 3 C-0.67 4.32 -0.34 5.64 0 7 C-0.99 7 -1.98 7 -3 7 C-3 3 -3 3 -1.5 1.25 C-1.005 0.8375 -0.51 0.425 0 0 Z " fill="#095049" transform="translate(389,162)"/>
<path d="M0 0 C0.6875 1.8125 0.6875 1.8125 1 4 C-0.4375 5.75 -0.4375 5.75 -2 7 C-2.99 6.67 -3.98 6.34 -5 6 C-3.35 4.02 -1.7 2.04 0 0 Z " fill="#09544E" transform="translate(416,377)"/>
<path d="M0 0 C0.66 0.66 1.32 1.32 2 2 C0.35 4.31 -1.3 6.62 -3 9 C-3.33 8.01 -3.66 7.02 -4 6 C-2.0625 2.8125 -2.0625 2.8125 0 0 Z " fill="#0C4D48" transform="translate(653,144)"/>
<path d="M0 0 C1.485 0.99 1.485 0.99 3 2 C2.01 2 1.02 2 0 2 C0 1.34 0 0.68 0 0 Z " fill="#0F6F6A" transform="translate(80,165)"/>
<path d="M0 0 C0.66 0.66 1.32 1.32 2 2 C1.34 2 0.68 2 0 2 C0 1.34 0 0.68 0 0 Z " fill="#0D746E" transform="translate(478,240)"/>
<path d="M0 0 C3 1 3 1 3 1 Z " fill="#0F746D" transform="translate(424,200)"/>
<path d="M0 0 C0.99 0.495 0.99 0.495 2 1 C1.01 1.495 1.01 1.495 0 2 C0 1.34 0 0.68 0 0 Z " fill="#13716A" transform="translate(634,184)"/>
<path d="M0 0 C0.99 0.495 0.99 0.495 2 1 C1.01 1.495 1.01 1.495 0 2 C0 1.34 0 0.68 0 0 Z " fill="#137772" transform="translate(85,58)"/>
<path d="M0 0 C2 1 2 1 2 1 Z " fill="#525B59" transform="translate(680,565)"/>
<path d="M0 0 C2 1 2 1 2 1 Z " fill="#4B5756" transform="translate(680,533)"/>
<path d="" fill="#126C67" transform="translate(0,0)"/>
<path d="M0 0 C2 1 2 1 2 1 Z " fill="#4A5655" transform="translate(680,525)"/>
<path d="M0 0 C2 1 2 1 2 1 Z " fill="#465453" transform="translate(680,509)"/>
<path d="" fill="#4D5959" transform="translate(0,0)"/>
<path d="M0 0 C2 1 2 1 2 1 Z " fill="#445352" transform="translate(680,493)"/>
<path d="M0 0 C2 1 2 1 2 1 Z " fill="#425351" transform="translate(680,485)"/>
<path d="M0 0 C2 1 2 1 2 1 Z " fill="#3F504F" transform="translate(680,469)"/>
<path d="M0 0 C2 1 2 1 2 1 Z " fill="#3E504F" transform="translate(680,461)"/>
<path d="M0 0 C2 1 2 1 2 1 Z " fill="#3C4E4E" transform="translate(680,453)"/>
<path d="M0 0 C2 1 2 1 2 1 Z " fill="#394D4C" transform="translate(680,437)"/>
<path d="" fill="#3D5451" transform="translate(0,0)"/>
<path d="M0 0 C2 1 2 1 2 1 Z " fill="#354A4A" transform="translate(680,413)"/>
<path d="M0 0 C2 1 2 1 2 1 Z " fill="#334A48" transform="translate(680,405)"/>
<path d="M0 0 C2 1 2 1 2 1 Z " fill="#304848" transform="translate(680,389)"/>
<path d="M0 0 C2 1 2 1 2 1 Z " fill="#0F6F69" transform="translate(230,362)"/>
<path d="M0 0 C2 1 2 1 2 1 Z " fill="#2B4947" transform="translate(680,357)"/>
<path d="M0 0 C2 1 2 1 2 1 Z " fill="#2A4847" transform="translate(680,349)"/>
<path d="M0 0 C2 1 2 1 2 1 Z " fill="#0C766F" transform="translate(439,346)"/>
<path d="M0 0 C2 1 2 1 2 1 Z " fill="#274A49" transform="translate(680,325)"/>
<path d="" fill="#186662" transform="translate(0,0)"/>
<path d="" fill="#126F69" transform="translate(0,0)"/>
<path d="" fill="#10776D" transform="translate(0,0)"/>
<path d="M0 0 C2 1 2 1 2 1 Z " fill="#1C5554" transform="translate(680,237)"/>
<path d="M0 0 C2 1 2 1 2 1 Z " fill="#0E6F68" transform="translate(114,209)"/>
<path d="M0 0 C2 1 2 1 2 1 Z " fill="#106F69" transform="translate(111,205)"/>
<path d="M0 0 C2 1 2 1 2 1 Z " fill="#1A5F5C" transform="translate(680,181)"/>
<path d="M0 0 C2 1 2 1 2 1 Z " fill="#127068" transform="translate(85,171)"/>
<path d="M0 0 C2 1 2 1 2 1 Z " fill="#166863" transform="translate(680,149)"/>
<path d="" fill="#0F706A" transform="translate(0,0)"/>
<path d="M0 0 C2 1 2 1 2 1 Z " fill="#0D7169" transform="translate(40,112)"/>
<path d="" fill="#10706A" transform="translate(0,0)"/>
<path d="" fill="#19756C" transform="translate(0,0)"/>
<path d="M0 0 C2 1 2 1 2 1 Z " fill="#147C75" transform="translate(658,59)"/>
<path d="" fill="#137973" transform="translate(0,0)"/>
<path d="" fill="#147971" transform="translate(0,0)"/>
<path d="M0 0 C2 1 2 1 2 1 Z " fill="#137570" transform="translate(555,58)"/>
<path d="M0 0 C2 1 2 1 2 1 Z " fill="#137670" transform="translate(91,58)"/>
<path d="M0 0 C2 1 2 1 2 1 Z " fill="#2B5D5A" transform="translate(680,5)"/>
<path d="" fill="#475553" transform="translate(0,0)"/>
<path d="" fill="#485553" transform="translate(0,0)"/>
<path d="" fill="#354F4D" transform="translate(0,0)"/>
<path d="" fill="#5E6362" transform="translate(0,0)"/>
<path d="" fill="#3D514E" transform="translate(0,0)"/>
<path d="" fill="#535B58" transform="translate(0,0)"/>
<path d="" fill="#364F4D" transform="translate(0,0)"/>
<path d="" fill="#475653" transform="translate(0,0)"/>
<path d="" fill="#33504C" transform="translate(0,0)"/>
<path d="" fill="#314F4C" transform="translate(0,0)"/>
<path d="" fill="#295D59" transform="translate(0,0)"/>
<path d="" fill="#5C6363" transform="translate(0,0)"/>
<path d="" fill="#3B524E" transform="translate(0,0)"/>
<path d="" fill="#2C5651" transform="translate(0,0)"/>
<path d="" fill="#33504D" transform="translate(0,0)"/>
<path d="" fill="#2C5953" transform="translate(0,0)"/>
<path d="" fill="#59625F" transform="translate(0,0)"/>
<path d="" fill="#465653" transform="translate(0,0)"/>
<path d="" fill="#314F4B" transform="translate(0,0)"/>
<path d="" fill="#5C6361" transform="translate(0,0)"/>
<path d="" fill="#515A58" transform="translate(0,0)"/>
<path d="" fill="#4C5753" transform="translate(0,0)"/>
<path d="" fill="#3A514E" transform="translate(0,0)"/>
<path d="" fill="#324F4D" transform="translate(0,0)"/>
<path d="" fill="#445555" transform="translate(0,0)"/>
<path d="" fill="#5A6261" transform="translate(0,0)"/>
<path d="" fill="#166C67" transform="translate(0,0)"/>
<path d="" fill="#445551" transform="translate(0,0)"/>
<path d="" fill="#2E4F4C" transform="translate(0,0)"/>
<path d="" fill="#5A6261" transform="translate(0,0)"/>
<path d="" fill="#525C5B" transform="translate(0,0)"/>
<path d="" fill="#4F5857" transform="translate(0,0)"/>
<path d="" fill="#445451" transform="translate(0,0)"/>
<path d="" fill="#285852" transform="translate(0,0)"/>
<path d="" fill="#465757" transform="translate(0,0)"/>
<path d="" fill="#435351" transform="translate(0,0)"/>
<path d="" fill="#2F4E4C" transform="translate(0,0)"/>
<path d="" fill="#37504E" transform="translate(0,0)"/>
<path d="" fill="#3A5752" transform="translate(0,0)"/>
<path d="" fill="#2C4F4D" transform="translate(0,0)"/>
<path d="" fill="#596160" transform="translate(0,0)"/>
<path d="" fill="#4C5857" transform="translate(0,0)"/>
<path d="" fill="#37504E" transform="translate(0,0)"/>
<path d="" fill="#24625D" transform="translate(0,0)"/>
<path d="" fill="#2F4F4D" transform="translate(0,0)"/>
<path d="" fill="#126D66" transform="translate(0,0)"/>
<path d="" fill="#41544F" transform="translate(0,0)"/>
<path d="" fill="#2B504C" transform="translate(0,0)"/>
<path d="" fill="#206660" transform="translate(0,0)"/>
<path d="" fill="#0F6F68" transform="translate(0,0)"/>
<path d="" fill="#565F60" transform="translate(0,0)"/>
<path d="" fill="#405250" transform="translate(0,0)"/>
<path d="" fill="#344F4E" transform="translate(0,0)"/>
<path d="" fill="#354F4C" transform="translate(0,0)"/>
<path d="" fill="#3C5453" transform="translate(0,0)"/>
<path d="" fill="#2B504D" transform="translate(0,0)"/>
<path d="" fill="#3E514F" transform="translate(0,0)"/>
<path d="" fill="#2B504D" transform="translate(0,0)"/>
<path d="" fill="#28504E" transform="translate(0,0)"/>
<path d="" fill="#555F5E" transform="translate(0,0)"/>
<path d="" fill="#3F5350" transform="translate(0,0)"/>
<path d="" fill="#334F4C" transform="translate(0,0)"/>
<path d="" fill="#136E69" transform="translate(0,0)"/>
<path d="" fill="#36514E" transform="translate(0,0)"/>
<path d="" fill="#3C504F" transform="translate(0,0)"/>
<path d="" fill="#28504E" transform="translate(0,0)"/>
<path d="" fill="#1E625F" transform="translate(0,0)"/>
<path d="" fill="#535D5D" transform="translate(0,0)"/>
<path d="" fill="#495554" transform="translate(0,0)"/>
<path d="" fill="#324E4C" transform="translate(0,0)"/>
<path d="" fill="#4C5C59" transform="translate(0,0)"/>
<path d="" fill="#2D5752" transform="translate(0,0)"/>
<path d="" fill="#3D524E" transform="translate(0,0)"/>
<path d="" fill="#27524C" transform="translate(0,0)"/>
<path d="" fill="#186F66" transform="translate(0,0)"/>
<path d="" fill="#525D5C" transform="translate(0,0)"/>
<path d="" fill="#116D67" transform="translate(0,0)"/>
<path d="" fill="#3C514E" transform="translate(0,0)"/>
<path d="" fill="#166D68" transform="translate(0,0)"/>
<path d="" fill="#525D5B" transform="translate(0,0)"/>
<path d="" fill="#126B65" transform="translate(0,0)"/>
<path d="" fill="#2F4E4C" transform="translate(0,0)"/>
<path d="" fill="#4E5B58" transform="translate(0,0)"/>
<path d="" fill="#0E7069" transform="translate(0,0)"/>
<path d="" fill="#39524E" transform="translate(0,0)"/>
<path d="" fill="#25514E" transform="translate(0,0)"/>
<path d="" fill="#136C64" transform="translate(0,0)"/>
<path d="" fill="#505C5B" transform="translate(0,0)"/>
<path d="" fill="#304C4D" transform="translate(0,0)"/>
<path d="" fill="#465352" transform="translate(0,0)"/>
<path d="" fill="#116C67" transform="translate(0,0)"/>
<path d="" fill="#465352" transform="translate(0,0)"/>
<path d="" fill="#405453" transform="translate(0,0)"/>
<path d="" fill="#465755" transform="translate(0,0)"/>
<path d="" fill="#4D5C59" transform="translate(0,0)"/>
<path d="" fill="#39504D" transform="translate(0,0)"/>
<path d="" fill="#25514E" transform="translate(0,0)"/>
<path d="" fill="#15726A" transform="translate(0,0)"/>
<path d="" fill="#3E504E" transform="translate(0,0)"/>
<path d="" fill="#3A4F4D" transform="translate(0,0)"/>
<path d="" fill="#147069" transform="translate(0,0)"/>
<path d="" fill="#0F6E69" transform="translate(0,0)"/>
<path d="" fill="#384E4C" transform="translate(0,0)"/>
<path d="" fill="#26514F" transform="translate(0,0)"/>
<path d="" fill="#465654" transform="translate(0,0)"/>
<path d="" fill="#2C4F4B" transform="translate(0,0)"/>
<path d="" fill="#274F4E" transform="translate(0,0)"/>
<path d="" fill="#37504E" transform="translate(0,0)"/>
<path d="" fill="#364E4C" transform="translate(0,0)"/>
<path d="" fill="#24524F" transform="translate(0,0)"/>
<path d="" fill="#4C5A59" transform="translate(0,0)"/>
<path d="" fill="#2B4F4C" transform="translate(0,0)"/>
<path d="" fill="#176F68" transform="translate(0,0)"/>
<path d="" fill="#4B5857" transform="translate(0,0)"/>
<path d="" fill="#354E4D" transform="translate(0,0)"/>
<path d="" fill="#176E67" transform="translate(0,0)"/>
<path d="" fill="#495857" transform="translate(0,0)"/>
<path d="" fill="#0F6B66" transform="translate(0,0)"/>
<path d="" fill="#374F4E" transform="translate(0,0)"/>
<path d="" fill="#23534F" transform="translate(0,0)"/>
<path d="" fill="#4A5857" transform="translate(0,0)"/>
<path d="" fill="#425050" transform="translate(0,0)"/>
<path d="" fill="#2C4E4B" transform="translate(0,0)"/>
<path d="" fill="#4A5857" transform="translate(0,0)"/>
<path d="" fill="#2B4E4B" transform="translate(0,0)"/>
<path d="" fill="#24534F" transform="translate(0,0)"/>
<path d="" fill="#177069" transform="translate(0,0)"/>
<path d="" fill="#215351" transform="translate(0,0)"/>
<path d="" fill="#116E68" transform="translate(0,0)"/>
<path d="" fill="#495757" transform="translate(0,0)"/>
<path d="" fill="#0F6F6A" transform="translate(0,0)"/>
<path d="" fill="#3A514B" transform="translate(0,0)"/>
<path d="" fill="#2E4D4A" transform="translate(0,0)"/>
<path d="" fill="#294E4C" transform="translate(0,0)"/>
<path d="" fill="#126F68" transform="translate(0,0)"/>
<path d="" fill="#235350" transform="translate(0,0)"/>
<path d="" fill="#137167" transform="translate(0,0)"/>
<path d="" fill="#475755" transform="translate(0,0)"/>
<path d="" fill="#215351" transform="translate(0,0)"/>
<path d="" fill="#126E69" transform="translate(0,0)"/>
<path d="" fill="#475757" transform="translate(0,0)"/>
<path d="" fill="#234F4D" transform="translate(0,0)"/>
<path d="" fill="#294D4D" transform="translate(0,0)"/>
<path d="" fill="#324D4C" transform="translate(0,0)"/>
<path d="" fill="#215452" transform="translate(0,0)"/>
<path d="" fill="#116E67" transform="translate(0,0)"/>
<path d="" fill="#1F5451" transform="translate(0,0)"/>
<path d="" fill="#1D5855" transform="translate(0,0)"/>
<path d="" fill="#455656" transform="translate(0,0)"/>
<path d="" fill="#445552" transform="translate(0,0)"/>
<path d="" fill="#304C4B" transform="translate(0,0)"/>
<path d="" fill="#2D4C4B" transform="translate(0,0)"/>
<path d="" fill="#1F5552" transform="translate(0,0)"/>
<path d="" fill="#126F69" transform="translate(0,0)"/>
<path d="" fill="#365251" transform="translate(0,0)"/>
<path d="" fill="#116F67" transform="translate(0,0)"/>
<path d="" fill="#0C6F68" transform="translate(0,0)"/>
<path d="" fill="#1E5452" transform="translate(0,0)"/>
<path d="" fill="#445654" transform="translate(0,0)"/>
<path d="" fill="#3B4E4E" transform="translate(0,0)"/>
<path d="" fill="#2F5150" transform="translate(0,0)"/>
<path d="" fill="#1D5552" transform="translate(0,0)"/>
<path d="" fill="#106F69" transform="translate(0,0)"/>
<path d="" fill="#425655" transform="translate(0,0)"/>
<path d="" fill="#43504F" transform="translate(0,0)"/>
<path d="" fill="#205853" transform="translate(0,0)"/>
<path d="" fill="#1C5853" transform="translate(0,0)"/>
<path d="" fill="#415454" transform="translate(0,0)"/>
<path d="" fill="#384C4B" transform="translate(0,0)"/>
<path d="" fill="#234E4B" transform="translate(0,0)"/>
<path d="" fill="#374C4B" transform="translate(0,0)"/>
<path d="" fill="#1D5854" transform="translate(0,0)"/>
<path d="" fill="#1E5251" transform="translate(0,0)"/>
<path d="" fill="#2D4D4A" transform="translate(0,0)"/>
<path d="" fill="#1D5A56" transform="translate(0,0)"/>
<path d="" fill="#3F5452" transform="translate(0,0)"/>
<path d="" fill="#364C4B" transform="translate(0,0)"/>
<path d="" fill="#2B4C4A" transform="translate(0,0)"/>
<path d="" fill="#1F5450" transform="translate(0,0)"/>
<path d="" fill="#435354" transform="translate(0,0)"/>
<path d="" fill="#4A5954" transform="translate(0,0)"/>
<path d="" fill="#1D5857" transform="translate(0,0)"/>
<path d="" fill="#3A5151" transform="translate(0,0)"/>
<path d="" fill="#2A4D4A" transform="translate(0,0)"/>
<path d="" fill="#224F4E" transform="translate(0,0)"/>
<path d="" fill="#1A5A56" transform="translate(0,0)"/>
<path d="" fill="#3D5352" transform="translate(0,0)"/>
<path d="" fill="#214E4D" transform="translate(0,0)"/>
<path d="" fill="#0E6D67" transform="translate(0,0)"/>
<path d="" fill="#3B5350" transform="translate(0,0)"/>
<path d="" fill="#0F6F68" transform="translate(0,0)"/>
<path d="" fill="#0F6E68" transform="translate(0,0)"/>
<path d="" fill="#3B5352" transform="translate(0,0)"/>
<path d="" fill="#20504F" transform="translate(0,0)"/>
<path d="" fill="#107068" transform="translate(0,0)"/>
<path d="" fill="#204F4C" transform="translate(0,0)"/>
<path d="" fill="#107D76" transform="translate(0,0)"/>
<path d="" fill="#1A645E" transform="translate(0,0)"/>
<path d="" fill="#20504D" transform="translate(0,0)"/>
<path d="" fill="#127971" transform="translate(0,0)"/>
<path d="" fill="#294949" transform="translate(0,0)"/>
<path d="" fill="#284D4B" transform="translate(0,0)"/>
<path d="" fill="#1A5E5A" transform="translate(0,0)"/>
<path d="" fill="#395252" transform="translate(0,0)"/>
<path d="" fill="#334A49" transform="translate(0,0)"/>
<path d="" fill="#20504F" transform="translate(0,0)"/>
<path d="" fill="#1B5E5A" transform="translate(0,0)"/>
<path d="" fill="#0D7069" transform="translate(0,0)"/>
<path d="" fill="#365250" transform="translate(0,0)"/>
<path d="" fill="#284D4A" transform="translate(0,0)"/>
<path d="" fill="#0F726B" transform="translate(0,0)"/>
<path d="" fill="#1A605A" transform="translate(0,0)"/>
<path d="" fill="#365351" transform="translate(0,0)"/>
<path d="" fill="#1F5351" transform="translate(0,0)"/>
<path d="" fill="#1B605B" transform="translate(0,0)"/>
<path d="" fill="#136F6A" transform="translate(0,0)"/>
<path d="" fill="#136F68" transform="translate(0,0)"/>
<path d="" fill="#1A6663" transform="translate(0,0)"/>
<path d="" fill="#186661" transform="translate(0,0)"/>
<path d="" fill="#126F6A" transform="translate(0,0)"/>
<path d="" fill="#0D7169" transform="translate(0,0)"/>
<path d="" fill="#254B4A" transform="translate(0,0)"/>
<path d="" fill="#274D4C" transform="translate(0,0)"/>
<path d="" fill="#19615B" transform="translate(0,0)"/>
<path d="" fill="#107068" transform="translate(0,0)"/>
<path d="" fill="#365152" transform="translate(0,0)"/>
<path d="" fill="#264D4B" transform="translate(0,0)"/>
<path d="" fill="#1C615D" transform="translate(0,0)"/>
<path d="" fill="#0E7973" transform="translate(0,0)"/>
<path d="" fill="#325151" transform="translate(0,0)"/>
<path d="" fill="#0F7970" transform="translate(0,0)"/>
<path d="" fill="#17625E" transform="translate(0,0)"/>
<path d="" fill="#355353" transform="translate(0,0)"/>
<path d="" fill="#2D4848" transform="translate(0,0)"/>
<path d="" fill="#254C4B" transform="translate(0,0)"/>
<path d="" fill="#1E5451" transform="translate(0,0)"/>
<path d="" fill="#0F786F" transform="translate(0,0)"/>
<path d="" fill="#116E69" transform="translate(0,0)"/>
<path d="" fill="#264E4C" transform="translate(0,0)"/>
<path d="" fill="#18645F" transform="translate(0,0)"/>
<path d="" fill="#136E65" transform="translate(0,0)"/>
<path d="" fill="#117670" transform="translate(0,0)"/>
<path d="" fill="#345352" transform="translate(0,0)"/>
<path d="" fill="#2E4749" transform="translate(0,0)"/>
<path d="" fill="#244E4C" transform="translate(0,0)"/>
<path d="" fill="#1D5652" transform="translate(0,0)"/>
<path d="" fill="#0D7871" transform="translate(0,0)"/>
<path d="" fill="#0D7770" transform="translate(0,0)"/>
<path d="" fill="#304948" transform="translate(0,0)"/>
<path d="" fill="#244E4B" transform="translate(0,0)"/>
<path d="" fill="#1E5753" transform="translate(0,0)"/>
<path d="" fill="#1B6460" transform="translate(0,0)"/>
<path d="" fill="#2F5051" transform="translate(0,0)"/>
<path d="" fill="#186560" transform="translate(0,0)"/>
<path d="" fill="#1F5250" transform="translate(0,0)"/>
<path d="" fill="#1D5854" transform="translate(0,0)"/>
<path d="" fill="#2D4947" transform="translate(0,0)"/>
<path d="" fill="#2D4745" transform="translate(0,0)"/>
<path d="" fill="#117068" transform="translate(0,0)"/>
<path d="" fill="#0F776F" transform="translate(0,0)"/>
<path d="" fill="#0F6D69" transform="translate(0,0)"/>
<path d="" fill="#224E4C" transform="translate(0,0)"/>
<path d="" fill="#156761" transform="translate(0,0)"/>
<path d="" fill="#14756C" transform="translate(0,0)"/>
<path d="" fill="#234F4D" transform="translate(0,0)"/>
<path d="" fill="#176862" transform="translate(0,0)"/>
<path d="" fill="#0F6A66" transform="translate(0,0)"/>
<path d="" fill="#156A65" transform="translate(0,0)"/>
<path d="" fill="#2E5453" transform="translate(0,0)"/>
<path d="" fill="#1E5958" transform="translate(0,0)"/>
<path d="" fill="#23504E" transform="translate(0,0)"/>
<path d="" fill="#127770" transform="translate(0,0)"/>
<path d="" fill="#176B65" transform="translate(0,0)"/>
<path d="" fill="#13716A" transform="translate(0,0)"/>
<path d="" fill="#10776F" transform="translate(0,0)"/>
<path d="" fill="#0D706B" transform="translate(0,0)"/>
<path d="" fill="#21504E" transform="translate(0,0)"/>
<path d="" fill="#146C66" transform="translate(0,0)"/>
<path d="" fill="#0D6D69" transform="translate(0,0)"/>
<path d="" fill="#2D5454" transform="translate(0,0)"/>
<path d="" fill="#294A48" transform="translate(0,0)"/>
<path d="" fill="#21514E" transform="translate(0,0)"/>
<path d="" fill="#1C5D59" transform="translate(0,0)"/>
<path d="" fill="#10766F" transform="translate(0,0)"/>
<path d="" fill="#106F69" transform="translate(0,0)"/>
<path d="" fill="#0F6D6A" transform="translate(0,0)"/>
<path d="" fill="#21504F" transform="translate(0,0)"/>
<path d="" fill="#166E67" transform="translate(0,0)"/>
<path d="" fill="#0E746E" transform="translate(0,0)"/>
<path d="" fill="#126F68" transform="translate(0,0)"/>
<path d="" fill="#10756E" transform="translate(0,0)"/>
<path d="" fill="#2B5453" transform="translate(0,0)"/>
<path d="" fill="#1A5E5B" transform="translate(0,0)"/>
<path d="" fill="#147069" transform="translate(0,0)"/>
<path d="" fill="#13706B" transform="translate(0,0)"/>
<path d="" fill="#205250" transform="translate(0,0)"/>
<path d="" fill="#107069" transform="translate(0,0)"/>
<path d="" fill="#225450" transform="translate(0,0)"/>
<path d="" fill="#2B5553" transform="translate(0,0)"/>
<path d="" fill="#264A4A" transform="translate(0,0)"/>
<path d="" fill="#295552" transform="translate(0,0)"/>
<path d="" fill="#1A605A" transform="translate(0,0)"/>
<path d="" fill="#136F69" transform="translate(0,0)"/>
<path d="" fill="#0D6F66" transform="translate(0,0)"/>
<path d="" fill="#295655" transform="translate(0,0)"/>
<path d="" fill="#1F5452" transform="translate(0,0)"/>
<path d="" fill="#275755" transform="translate(0,0)"/>
<path d="" fill="#0E786F" transform="translate(0,0)"/>
<path d="" fill="#116F68" transform="translate(0,0)"/>
<path d="" fill="#285856" transform="translate(0,0)"/>
<path d="" fill="#116F6A" transform="translate(0,0)"/>
<path d="" fill="#244D4A" transform="translate(0,0)"/>
<path d="" fill="#116F68" transform="translate(0,0)"/>
<path d="" fill="#0C7770" transform="translate(0,0)"/>
<path d="" fill="#275A56" transform="translate(0,0)"/>
<path d="" fill="#244F4C" transform="translate(0,0)"/>
<path d="" fill="#176661" transform="translate(0,0)"/>
<path d="" fill="#1E5B57" transform="translate(0,0)"/>
<path d="" fill="#224F4D" transform="translate(0,0)"/>
<path d="" fill="#1A635E" transform="translate(0,0)"/>
<path d="" fill="#166964" transform="translate(0,0)"/>
<path d="" fill="#1C5A57" transform="translate(0,0)"/>
<path d="" fill="#0F756F" transform="translate(0,0)"/>
<path d="" fill="#106C68" transform="translate(0,0)"/>
<path d="" fill="#1D5D58" transform="translate(0,0)"/>
<path d="" fill="#0F6E68" transform="translate(0,0)"/>
<path d="" fill="#19645E" transform="translate(0,0)"/>
<path d="" fill="#107068" transform="translate(0,0)"/>
<path d="" fill="#146C67" transform="translate(0,0)"/>
<path d="" fill="#156B64" transform="translate(0,0)"/>
<path d="" fill="#0C6E68" transform="translate(0,0)"/>
<path d="" fill="#1C5C59" transform="translate(0,0)"/>
<path d="" fill="#205250" transform="translate(0,0)"/>
<path d="" fill="#166E68" transform="translate(0,0)"/>
<path d="" fill="#166E68" transform="translate(0,0)"/>
<path d="" fill="#12716A" transform="translate(0,0)"/>
<path d="" fill="#22504D" transform="translate(0,0)"/>
<path d="" fill="#166E67" transform="translate(0,0)"/>
<path d="" fill="#11746D" transform="translate(0,0)"/>
<path d="" fill="#146D68" transform="translate(0,0)"/>
<path d="" fill="#0F716A" transform="translate(0,0)"/>
<path d="" fill="#127770" transform="translate(0,0)"/>
<path d="" fill="#1C605D" transform="translate(0,0)"/>
<path d="" fill="#137169" transform="translate(0,0)"/>
<path d="" fill="#1E6560" transform="translate(0,0)"/>
<path d="" fill="#107471" transform="translate(0,0)"/>
<path d="" fill="#215E5C" transform="translate(0,0)"/>
<path d="" fill="#215E5B" transform="translate(0,0)"/>
<path d="" fill="#1C5955" transform="translate(0,0)"/>
<path d="" fill="#1C6662" transform="translate(0,0)"/>
<path d="" fill="#0C756C" transform="translate(0,0)"/>
<path d="" fill="#0F6B69" transform="translate(0,0)"/>
<path d="" fill="#19615D" transform="translate(0,0)"/>
<path d="" fill="#1B645F" transform="translate(0,0)"/>
<path d="" fill="#146D68" transform="translate(0,0)"/>
<path d="" fill="#0D706A" transform="translate(0,0)"/>
<path d="" fill="#1B6661" transform="translate(0,0)"/>
<path d="" fill="#1E6360" transform="translate(0,0)"/>
<path d="" fill="#1D5756" transform="translate(0,0)"/>
<path d="" fill="#166D68" transform="translate(0,0)"/>
<path d="" fill="#0E6E67" transform="translate(0,0)"/>
<path d="" fill="#186561" transform="translate(0,0)"/>
<path d="" fill="#1D5856" transform="translate(0,0)"/>
<path d="" fill="#196764" transform="translate(0,0)"/>
<path d="" fill="#12756C" transform="translate(0,0)"/>
<path d="" fill="#0F746D" transform="translate(0,0)"/>
<path d="" fill="#11736C" transform="translate(0,0)"/>
<path d="" fill="#1D6563" transform="translate(0,0)"/>
<path d="" fill="#196963" transform="translate(0,0)"/>
<path d="" fill="#12726B" transform="translate(0,0)"/>
<path d="" fill="#0F6D68" transform="translate(0,0)"/>
<path d="" fill="#12756B" transform="translate(0,0)"/>
<path d="" fill="#11746D" transform="translate(0,0)"/>
<path d="" fill="#186963" transform="translate(0,0)"/>
<path d="" fill="#11716B" transform="translate(0,0)"/>
<path d="" fill="#196B65" transform="translate(0,0)"/>
<path d="" fill="#0F7065" transform="translate(0,0)"/>
<path d="" fill="#205552" transform="translate(0,0)"/>
<path d="" fill="#1C6865" transform="translate(0,0)"/>
<path d="" fill="#1B5C59" transform="translate(0,0)"/>
<path d="" fill="#0F7067" transform="translate(0,0)"/>
<path d="" fill="#1B5C58" transform="translate(0,0)"/>
<path d="" fill="#186A65" transform="translate(0,0)"/>
<path d="" fill="#0E736C" transform="translate(0,0)"/>
<path d="" fill="#166A65" transform="translate(0,0)"/>
<path d="" fill="#0B6F68" transform="translate(0,0)"/>
<path d="" fill="#13736C" transform="translate(0,0)"/>
<path d="" fill="#0F6F66" transform="translate(0,0)"/>
<path d="" fill="#176D66" transform="translate(0,0)"/>
<path d="" fill="#11756F" transform="translate(0,0)"/>
<path d="" fill="#13776D" transform="translate(0,0)"/>
<path d="" fill="#13736C" transform="translate(0,0)"/>
<path d="" fill="#196A67" transform="translate(0,0)"/>
<path d="" fill="#12726E" transform="translate(0,0)"/>
<path d="" fill="#106F69" transform="translate(0,0)"/>
<path d="" fill="#1B5C5A" transform="translate(0,0)"/>
<path d="" fill="#166C67" transform="translate(0,0)"/>
<path d="" fill="#0E6D67" transform="translate(0,0)"/>
<path d="" fill="#107069" transform="translate(0,0)"/>
<path d="" fill="#196864" transform="translate(0,0)"/>
<path d="" fill="#116F6A" transform="translate(0,0)"/>
<path d="" fill="#166D67" transform="translate(0,0)"/>
<path d="" fill="#0F6F67" transform="translate(0,0)"/>
<path d="" fill="#10736A" transform="translate(0,0)"/>
<path d="" fill="#117369" transform="translate(0,0)"/>
<path d="" fill="#186B68" transform="translate(0,0)"/>
<path d="" fill="#1A5E5C" transform="translate(0,0)"/>
<path d="" fill="#176E68" transform="translate(0,0)"/>
<path d="" fill="#166B67" transform="translate(0,0)"/>
<path d="" fill="#15716C" transform="translate(0,0)"/>
<path d="" fill="#117067" transform="translate(0,0)"/>
<path d="" fill="#13726C" transform="translate(0,0)"/>
<path d="" fill="#166D6A" transform="translate(0,0)"/>
<path d="" fill="#14716A" transform="translate(0,0)"/>
<path d="" fill="#14716B" transform="translate(0,0)"/>
<path d="" fill="#0D6D67" transform="translate(0,0)"/>
<path d="" fill="#166B66" transform="translate(0,0)"/>
<path d="" fill="#14726C" transform="translate(0,0)"/>
<path d="" fill="#15736C" transform="translate(0,0)"/>
<path d="" fill="#0F736C" transform="translate(0,0)"/>
<path d="" fill="#10726C" transform="translate(0,0)"/>
<path d="" fill="#10706A" transform="translate(0,0)"/>
<path d="" fill="#0D6E68" transform="translate(0,0)"/>
<path d="" fill="#166E6B" transform="translate(0,0)"/>
<path d="" fill="#18635F" transform="translate(0,0)"/>
<path d="" fill="#0C7169" transform="translate(0,0)"/>
<path d="" fill="#0F716C" transform="translate(0,0)"/>
<path d="" fill="#1E5955" transform="translate(0,0)"/>
<path d="" fill="#0E716A" transform="translate(0,0)"/>
<path d="" fill="#15716B" transform="translate(0,0)"/>
<path d="" fill="#11766B" transform="translate(0,0)"/>
<path d="" fill="#176661" transform="translate(0,0)"/>
<path d="" fill="#11726C" transform="translate(0,0)"/>
<path d="" fill="#0C716C" transform="translate(0,0)"/>
<path d="" fill="#0D706A" transform="translate(0,0)"/>
<path d="" fill="#10746B" transform="translate(0,0)"/>
<path d="" fill="#186964" transform="translate(0,0)"/>
<path d="" fill="#11716C" transform="translate(0,0)"/>
<path d="" fill="#12736B" transform="translate(0,0)"/>
<path d="" fill="#0E756C" transform="translate(0,0)"/>
<path d="" fill="#11706D" transform="translate(0,0)"/>
<path d="" fill="#156D66" transform="translate(0,0)"/>
<path d="" fill="#0E736B" transform="translate(0,0)"/>
<path d="" fill="#166C68" transform="translate(0,0)"/>
<path d="" fill="#10736A" transform="translate(0,0)"/>
<path d="" fill="#146E69" transform="translate(0,0)"/>
<path d="" fill="#176A61" transform="translate(0,0)"/>
<path d="" fill="#12736B" transform="translate(0,0)"/>
<path d="" fill="#0E6F69" transform="translate(0,0)"/>
<path d="" fill="#106F6B" transform="translate(0,0)"/>
<path d="" fill="#156E67" transform="translate(0,0)"/>
<path d="" fill="#15706A" transform="translate(0,0)"/>
<path d="" fill="#12726A" transform="translate(0,0)"/>
<path d="" fill="#0C706A" transform="translate(0,0)"/>
<path d="" fill="#176960" transform="translate(0,0)"/>
<path d="" fill="#11716A" transform="translate(0,0)"/>
<path d="" fill="#0F706A" transform="translate(0,0)"/>
<path d="" fill="#11726A" transform="translate(0,0)"/>
<path d="" fill="#116F6B" transform="translate(0,0)"/>
<path d="" fill="#0F6F6A" transform="translate(0,0)"/>
<path d="" fill="#0F726C" transform="translate(0,0)"/>
<path d="" fill="#12736B" transform="translate(0,0)"/>
<path d="" fill="#15716A" transform="translate(0,0)"/>
<path d="" fill="#157169" transform="translate(0,0)"/>
<path d="" fill="#196D67" transform="translate(0,0)"/>
<path d="" fill="#106F69" transform="translate(0,0)"/>
<path d="" fill="#1B7069" transform="translate(0,0)"/>
<path d="" fill="#126F69" transform="translate(0,0)"/>
<path d="" fill="#146E6A" transform="translate(0,0)"/>
<path d="" fill="#126D67" transform="translate(0,0)"/>
<path d="" fill="#156763" transform="translate(0,0)"/>
<path d="" fill="#147670" transform="translate(0,0)"/>
<path d="" fill="#137970" transform="translate(0,0)"/>
<path d="" fill="#137C73" transform="translate(0,0)"/>
<path d="" fill="#127C75" transform="translate(0,0)"/>
<path d="" fill="#127D74" transform="translate(0,0)"/>
<path d="" fill="#117F75" transform="translate(0,0)"/>
<path d="" fill="#127970" transform="translate(0,0)"/>
<path d="" fill="#157A74" transform="translate(0,0)"/>
<path d="" fill="#117C72" transform="translate(0,0)"/>
<path d="" fill="#13746D" transform="translate(0,0)"/>
<path d="" fill="#116D66" transform="translate(0,0)"/>
<path d="" fill="#137B75" transform="translate(0,0)"/>
<path d="" fill="#13706B" transform="translate(0,0)"/>
<path d="" fill="#15716A" transform="translate(0,0)"/>
<path d="" fill="#15736B" transform="translate(0,0)"/>
<path d="" fill="#12736E" transform="translate(0,0)"/>
<path d="" fill="#15736F" transform="translate(0,0)"/>
<path d="" fill="#11776E" transform="translate(0,0)"/>
<path d="" fill="#15766F" transform="translate(0,0)"/>
<path d="" fill="#14776F" transform="translate(0,0)"/>
<path d="" fill="#147470" transform="translate(0,0)"/>
<path d="" fill="#11776F" transform="translate(0,0)"/>
<path d="" fill="#167670" transform="translate(0,0)"/>
<path d="" fill="#127670" transform="translate(0,0)"/>
<path d="" fill="#15766F" transform="translate(0,0)"/>
<path d="" fill="#14756D" transform="translate(0,0)"/>
<path d="" fill="#12746D" transform="translate(0,0)"/>
<path d="" fill="#137570" transform="translate(0,0)"/>
<path d="" fill="#14776F" transform="translate(0,0)"/>
<path d="" fill="#15786F" transform="translate(0,0)"/>
<path d="" fill="#167771" transform="translate(0,0)"/>
<path d="" fill="#14756F" transform="translate(0,0)"/>
<path d="" fill="#127571" transform="translate(0,0)"/>
<path d="" fill="#167772" transform="translate(0,0)"/>
<path d="" fill="#157774" transform="translate(0,0)"/>
<path d="" fill="#137571" transform="translate(0,0)"/>
<path d="" fill="#157670" transform="translate(0,0)"/>
<path d="" fill="#167770" transform="translate(0,0)"/>
<path d="" fill="#157771" transform="translate(0,0)"/>
<path d="" fill="#187771" transform="translate(0,0)"/>
<path d="" fill="#17756F" transform="translate(0,0)"/>
<path d="" fill="#16706C" transform="translate(0,0)"/>
<path d="" fill="#1C7471" transform="translate(0,0)"/>
<path d="" fill="#1B6F6A" transform="translate(0,0)"/>
<path d="" fill="#1C6D6A" transform="translate(0,0)"/>
<path d="" fill="#196B67" transform="translate(0,0)"/>
<path d="" fill="#1B5853" transform="translate(0,0)"/>
<path d="" fill="#21726D" transform="translate(0,0)"/>
<path d="" fill="#216967" transform="translate(0,0)"/>
<path d="" fill="#1C6A65" transform="translate(0,0)"/>
<path d="" fill="#1A524D" transform="translate(0,0)"/>
<path d="" fill="#1A6663" transform="translate(0,0)"/>
<path d="" fill="#246D6A" transform="translate(0,0)"/>
<path d="" fill="#246664" transform="translate(0,0)"/>
<path d="" fill="#1E6964" transform="translate(0,0)"/>
<path d="" fill="#226965" transform="translate(0,0)"/>
<path d="" fill="#1C645F" transform="translate(0,0)"/>
<path d="" fill="#266461" transform="translate(0,0)"/>
<path d="" fill="#236762" transform="translate(0,0)"/>
<path d="" fill="#236460" transform="translate(0,0)"/>
<path d="" fill="#1F605D" transform="translate(0,0)"/>
<path d="" fill="#2A6865" transform="translate(0,0)"/>
<path d="" fill="#28625E" transform="translate(0,0)"/>
<path d="" fill="#21635F" transform="translate(0,0)"/>
<path d="" fill="#205F5B" transform="translate(0,0)"/>
<path d="" fill="#1F5D59" transform="translate(0,0)"/>
<path d="" fill="#1E5E5A" transform="translate(0,0)"/>
<path d="" fill="#2B6562" transform="translate(0,0)"/>
<path d="" fill="#2A615E" transform="translate(0,0)"/>
<path d="" fill="#245F5C" transform="translate(0,0)"/>
<path d="" fill="#225C57" transform="translate(0,0)"/>
<path d="" fill="#205A55" transform="translate(0,0)"/>
<path d="" fill="#2E625E" transform="translate(0,0)"/>
<path d="" fill="#235855" transform="translate(0,0)"/>
</svg>
